<svg width="99" height="80" viewBox="0 0 99 80" fill="none" xmlns="http://www.w3.org/2000/svg"><path d="M57.5 20h-16c-1.1 0-1.99.9-1.99 2l-.01 12c0 1.1.9 2 2 2h16c1.1 0 2-.9 2-2V22c0-1.1-.9-2-2-2Zm0 14h-16V24l8 5 8-5v10Zm-8-7-8-5h16l-8 5Zm-6.233 29.685h1.22a2.824 2.824 0 0 1-.39 1.246 2.326 2.326 0 0 1-.933.854c-.4.209-.887.313-1.46.313-.44 0-.835-.078-1.186-.235a2.6 2.6 0 0 1-.904-.673 3.047 3.047 0 0 1-.576-1.06 4.605 4.605 0 0 1-.195-1.387v-.59a4.5 4.5 0 0 1 .2-1.387c.137-.414.332-.767.586-1.06.254-.296.558-.522.913-.679a2.99 2.99 0 0 1 1.206-.234c.567 0 1.045.104 1.436.313.39.208.693.496.908.864.218.368.351.79.4 1.264h-1.22a2.258 2.258 0 0 0-.215-.786 1.107 1.107 0 0 0-.479-.498c-.212-.117-.488-.176-.83-.176-.28 0-.524.053-.732.157a1.381 1.381 0 0 0-.523.459c-.14.202-.246.45-.317.747a4.447 4.447 0 0 0-.103 1.006v.6c0 .358.031.684.093.977.065.29.163.538.293.747.133.208.303.37.508.483.205.114.45.171.737.171.348 0 .63-.055.845-.166.218-.11.382-.272.493-.483.114-.215.189-.477.225-.787Zm3.878-5.185V59h-1.171v-7.5h1.172Zm-.205 4.663-.38-.005c.003-.364.053-.701.15-1.01.102-.31.242-.578.42-.806a1.868 1.868 0 0 1 1.5-.723c.26 0 .495.036.703.108.212.071.394.187.547.346.153.157.268.362.347.615.08.251.122.557.122.918V59h-1.182v-3.403c0-.254-.037-.456-.112-.606a.651.651 0 0 0-.318-.322 1.162 1.162 0 0 0-.512-.103c-.212 0-.4.043-.562.127-.16.085-.293.2-.4.347a1.598 1.598 0 0 0-.244.508 2.34 2.34 0 0 0-.079.615Zm8.079 1.777v-2.52a1.08 1.08 0 0 0-.103-.487.718.718 0 0 0-.313-.318 1.07 1.07 0 0 0-.517-.112c-.192 0-.358.032-.498.098a.805.805 0 0 0-.327.263.636.636 0 0 0-.117.376h-1.172c0-.208.05-.41.151-.605a1.62 1.62 0 0 1 .44-.523c.192-.153.421-.273.688-.361.267-.088.566-.132.898-.132.398 0 .75.067 1.055.2.31.134.552.336.728.606.179.267.268.602.268 1.006v2.348c0 .241.017.458.049.65.036.188.086.353.151.493V59h-1.206a2.09 2.09 0 0 1-.132-.483 3.947 3.947 0 0 1-.043-.577Zm.17-2.153.01.728h-.844c-.219 0-.41.02-.577.063-.166.04-.304.098-.415.176a.762.762 0 0 0-.332.66c0 .14.033.268.098.385.065.114.16.203.283.268.127.066.28.098.46.098.24 0 .45-.049.629-.146.182-.101.326-.223.43-.367a.797.797 0 0 0 .166-.415l.38.523a1.786 1.786 0 0 1-.2.43 2.117 2.117 0 0 1-.37.439 1.844 1.844 0 0 1-1.265.469c-.346 0-.653-.069-.923-.205a1.642 1.642 0 0 1-.635-.562 1.456 1.456 0 0 1-.23-.806c0-.28.053-.527.157-.742.107-.218.263-.4.468-.547.209-.146.463-.257.762-.332a4.09 4.09 0 0 1 1.026-.117h.922Zm5.163-2.07v.86h-2.978v-.86h2.978Zm-2.119-1.294h1.177v5.117c0 .163.023.288.069.376a.365.365 0 0 0 .2.17.89.89 0 0 0 .298.045 2.35 2.35 0 0 0 .415-.044l.005.898a3.03 3.03 0 0 1-.342.078 2.51 2.51 0 0 1-.44.035c-.27 0-.51-.047-.718-.142a1.057 1.057 0 0 1-.488-.474c-.117-.218-.176-.507-.176-.869v-5.19Z" fill="#8E8E8E"/></svg>