<svg width="99" height="80" viewBox="0 0 99 80" fill="none" xmlns="http://www.w3.org/2000/svg"><g clip-path="url(#a)" fill="#333"><path d="M58 18v2.02A13.413 13.413 0 0 0 49.5 17c-3.22 0-6.18 1.13-8.5 3.02V18h-1.5v5h5v-1.5h-2.91c2.11-1.86 4.88-3 7.91-3 3.03 0 5.79 1.14 7.91 3H54.5V23h5v-5H58Z"/><path d="m56.39 29.77-3.8-1.67c-.13-.06-.28-.1-.44-.1h-.65v-4.37c0-1.32-.96-2.5-2.27-2.62a2.508 2.508 0 0 0-2.73 2.49v8.15l-1.87-.4c-.19-.03-1.02-.15-1.73.56l-1.4 1.41 5.12 5.19c.37.38.88.59 1.41.59h6.55c.98 0 1.81-.7 1.97-1.67l.92-5.44a2 2 0 0 0-1.08-2.12Zm-.89 1.79L54.58 37h-6.55l-3.7-3.78 4.17.89V23.5c0-.28.22-.5.5-.5s.5.22.5.5v6.18h1.76l4.24 1.88Z"/></g><path d="M31.06 59h-1.533l.01-1.055h1.524c.413 0 .76-.09 1.04-.273.28-.186.491-.451.634-.796.144-.348.215-.765.215-1.25v-.366c0-.375-.04-.705-.122-.991a1.984 1.984 0 0 0-.361-.723 1.503 1.503 0 0 0-.581-.444 1.972 1.972 0 0 0-.796-.152h-1.592v-1.06h1.592a3.4 3.4 0 0 1 1.299.24 2.98 2.98 0 0 1 1.684 1.753c.157.413.235.876.235 1.387v.356c0 .508-.078.97-.235 1.387a2.98 2.98 0 0 1-.664 1.064 2.923 2.923 0 0 1-1.025.684A3.52 3.52 0 0 1 31.06 59Zm-.78-7.11V59h-1.344v-7.11h1.343Zm6.94 1.827V59h-1.294v-5.283h1.294Zm-1.382-1.382a.64.64 0 0 1 .195-.479c.134-.127.313-.19.537-.19.225 0 .402.064.532.19.134.127.2.287.2.479a.627.627 0 0 1-.2.474c-.13.127-.307.19-.532.19-.224 0-.403-.064-.537-.19a.635.635 0 0 1-.195-.474Zm6.017 5.22a.529.529 0 0 0-.087-.298c-.059-.088-.17-.168-.333-.24a3.374 3.374 0 0 0-.703-.21 5.187 5.187 0 0 1-.756-.22 2.448 2.448 0 0 1-.596-.317 1.443 1.443 0 0 1-.39-.444 1.256 1.256 0 0 1-.138-.596c0-.218.048-.423.142-.615.095-.195.231-.366.41-.513.18-.15.397-.266.655-.351.257-.088.547-.132.869-.132.449 0 .835.073 1.157.22.325.146.575.348.747.605.173.254.259.54.259.86H41.8a.754.754 0 0 0-.097-.381.67.67 0 0 0-.288-.274 1.015 1.015 0 0 0-.493-.107c-.18 0-.33.03-.454.088a.664.664 0 0 0-.274.23.559.559 0 0 0-.044.541.554.554 0 0 0 .171.181c.078.055.184.106.318.151.136.046.304.09.503.132.393.078.737.182 1.03.313.296.127.527.296.693.508.166.211.25.481.25.81 0 .234-.051.45-.152.645-.101.192-.247.36-.44.503a2.227 2.227 0 0 1-.688.337 3.215 3.215 0 0 1-.903.117c-.485 0-.896-.087-1.23-.26a1.968 1.968 0 0 1-.763-.663 1.54 1.54 0 0 1-.258-.84h1.235a.82.82 0 0 0 .166.493.86.86 0 0 0 .38.269c.157.052.322.078.494.078.195 0 .36-.026.493-.078a.704.704 0 0 0 .303-.22.536.536 0 0 0 .102-.322Zm4.91.527c.182 0 .345-.036.488-.107a.855.855 0 0 0 .342-.303.852.852 0 0 0 .141-.454h1.216a1.711 1.711 0 0 1-.303.962 2.073 2.073 0 0 1-.78.673 2.37 2.37 0 0 1-1.085.245c-.407 0-.761-.069-1.064-.205a2.073 2.073 0 0 1-.757-.572 2.529 2.529 0 0 1-.45-.85 3.55 3.55 0 0 1-.146-1.034v-.157c0-.368.049-.713.147-1.035.1-.322.25-.605.449-.85.202-.244.454-.434.757-.57a2.554 2.554 0 0 1 1.06-.206c.426 0 .8.083 1.122.25.326.165.58.4.762.702.186.303.282.66.288 1.07h-1.216a1.171 1.171 0 0 0-.127-.508.933.933 0 0 0-.332-.361.953.953 0 0 0-.522-.137c-.218 0-.4.045-.547.137a.944.944 0 0 0-.337.376 1.853 1.853 0 0 0-.166.527c-.03.192-.044.394-.044.605v.157c0 .214.015.42.044.615.033.195.088.37.166.527a.96.96 0 0 0 .337.366c.147.091.332.137.557.137Zm3.317-1.67v-.102c0-.388.055-.744.166-1.07.11-.329.272-.613.483-.854a2.18 2.18 0 0 1 .777-.562 2.537 2.537 0 0 1 1.045-.205c.397 0 .748.069 1.054.205.31.134.57.32.782.562.211.24.372.525.483.854.11.326.166.682.166 1.07v.102c0 .384-.055.74-.166 1.07-.11.325-.272.61-.483.854-.212.24-.47.428-.777.562-.306.133-.656.2-1.05.2-.39 0-.74-.067-1.05-.2a2.165 2.165 0 0 1-.78-.562 2.536 2.536 0 0 1-.484-.855 3.334 3.334 0 0 1-.166-1.069Zm1.29-.102v.102c0 .231.022.448.068.65.045.201.115.379.21.532.094.153.216.273.366.361.153.085.335.127.547.127.208 0 .387-.042.537-.127.15-.088.271-.208.366-.361.097-.153.17-.33.215-.532.045-.202.068-.419.068-.65v-.102a2.86 2.86 0 0 0-.068-.64 1.66 1.66 0 0 0-.215-.532 1.025 1.025 0 0 0-.913-.503 1.013 1.013 0 0 0-.904.503 1.73 1.73 0 0 0-.21.532 2.854 2.854 0 0 0-.068.64Zm6.778 1.713 1.23-4.306h1.348L58.917 59h-.82l.053-.977Zm-.898-4.306 1.245 4.316.044.967h-.825l-1.817-5.283h1.353Zm6.96 5.38c-.4 0-.76-.064-1.08-.195a2.37 2.37 0 0 1-.815-.542 2.49 2.49 0 0 1-.512-.815 2.841 2.841 0 0 1-.176-1.006v-.195c0-.407.059-.777.176-1.109.117-.335.283-.623.498-.864.215-.24.472-.426.771-.556.3-.13.63-.196.991-.196.375 0 .705.064.992.19.286.124.525.3.717.528a2.3 2.3 0 0 1 .435.82c.098.316.147.666.147 1.05v.542h-4.141v-.889h2.87v-.097a1.555 1.555 0 0 0-.116-.562.897.897 0 0 0-.332-.41c-.15-.104-.344-.156-.581-.156a.97.97 0 0 0-.503.127 1.01 1.01 0 0 0-.352.351c-.091.15-.16.33-.205.537-.046.209-.068.44-.068.694v.195c0 .221.029.426.088.615.062.19.151.353.268.493.12.137.264.245.43.323.17.075.361.112.576.112.27 0 .514-.052.732-.156a1.63 1.63 0 0 0 .577-.474l.649.674c-.11.163-.26.319-.45.469-.185.15-.41.272-.673.366a2.79 2.79 0 0 1-.913.137Zm4.797-4.301V59h-1.29v-5.283h1.221l.069 1.079Zm1.606-1.113-.02 1.2a3.387 3.387 0 0 0-.493-.04 1.56 1.56 0 0 0-.522.085.975.975 0 0 0-.376.23.998.998 0 0 0-.224.37 1.59 1.59 0 0 0-.088.489l-.279-.035c0-.335.034-.646.103-.932.068-.287.168-.537.298-.752a1.43 1.43 0 0 1 .488-.498c.199-.12.426-.18.684-.18.071 0 .148.006.229.019a.79.79 0 0 1 .2.044Z" fill="#333"/><defs><clipPath id="a"><rect x="17.5" y="12" width="64" height="32" rx="16" fill="#fff"/></clipPath></defs></svg>