<svg width="117" height="161" viewBox="0 0 117 161" fill="none" xmlns="http://www.w3.org/2000/svg"><path fill="#333" d="M7 7h110v154H7z"/><mask id="a" style="mask-type:luminance" maskUnits="userSpaceOnUse" x="0" y="2" width="116" height="155"><path d="M0 2.54h115.134V157H0V2.54Z" fill="#fff"/></mask><g mask="url(#a)"><path d="M1.68 3.644c.016.539.01.874.016 1.282l.009 1.187.016 2.372.03 4.744.043 9.49c.018 6.325.033 12.651-.02 18.981-.01 1.583-.03 3.168-.063 4.753-.03 1.593-.08 3.157-.101 4.74a943.07 943.07 0 0 0-.1 9.479 2498.41 2498.41 0 0 0-.047 18.968c.007 6.324.029 12.647.085 18.969.029 3.161.065 6.321.122 9.478l.176 9.487c.12 6.323.252 12.643.435 18.961.091 3.159.2 6.316.33 9.472.135 3.155.289 6.309.513 9.45l-.713-.686c4.65.138 9.317.195 13.98.257l13.992.14c9.329.084 18.658.137 27.987.166 9.33.026 18.66.028 27.987-.02 4.663-.027 9.326-.064 13.987-.135 2.33-.036 4.66-.082 6.987-.135 1.163-.027 2.326-.05 3.484-.087l1.732-.065c.57-.028 1.156-.056 1.684-.113l-.632.732c-.181-6.283-.207-12.581-.306-18.873l-.277-18.883c-.09-6.296-.194-12.586-.245-18.892-.018-6.29-.124-12.582-.205-18.878l-.261-18.884c-.082-6.296-.168-12.59-.198-18.893l.003-37.774.688.739a189.43 189.43 0 0 1-3.471-.065l-3.488-.105a992.448 992.448 0 0 0-6.989-.166c-4.66-.094-9.322-.168-13.984-.233-9.326-.13-18.652-.225-27.978-.298-9.327-.074-18.653-.128-27.98-.148-4.663-.009-9.326-.01-13.987.01-2.331.009-4.661.024-6.99.05a404.1 404.1 0 0 0-3.49.06c-.58.013-1.16.029-1.736.051-.288.01-.575.024-.858.04-.141.01-.28.019-.413.03l-.185.02-.058.01c-.004 0-.003 0 .023-.007.016-.006.026-.006.09-.038-.02-.02.368-.068.375-.74Zm-1.467.205c.004-.691.414-.752.407-.778.081-.042.108-.047.142-.06A1.12 1.12 0 0 1 .89 2.98c.064-.015.11-.02.157-.027.09-.012.172-.022.25-.029.158-.015.31-.024.46-.034.3-.019.595-.032.89-.043.588-.024 1.174-.041 1.758-.057 1.171-.028 2.339-.049 3.506-.065a888.19 888.19 0 0 1 7.002-.068c4.666-.03 9.332-.04 13.996-.04 9.33-.002 18.66.031 27.99.086 9.33.058 18.659.135 27.988.25 4.666.057 9.33.123 13.996.21 2.333.043 4.666.092 7.001.152 2.337.072 4.665.096 7.02.382l.024.002c.38.04.662.364.664.736l.105 37.769c.034 6.288.126 12.583.214 18.876l.281 18.883c.087 6.295.199 12.592.224 18.892.057 6.284.167 12.584.263 18.875l.298 18.884.131 9.445c.017 1.574.031 3.148.027 4.724l-.01 2.363c-.016.79-.023 1.578-.045 2.366v.004a.758.758 0 0 1-.632.728c-.627.106-1.207.151-1.801.204-.588.051-1.175.087-1.762.12-1.17.066-2.34.117-3.508.154a381.51 381.51 0 0 1-7.008.144c-4.67.065-9.338.096-14.005.116-9.334.036-18.666.019-28-.019a4665.72 4665.72 0 0 1-27.996-.205c-4.667-.05-9.333-.116-14-.19-4.667-.082-9.33-.158-14.007-.317a.743.743 0 0 1-.713-.687c-.225-3.166-.377-6.33-.51-9.495a753.154 753.154 0 0 1-.323-9.492C.636 130.25.512 123.925.394 117.6l-.177-9.485c-.058-3.166-.094-6.33-.125-9.493-.057-6.328-.08-12.654-.09-18.98-.007-6.326.002-12.653.041-18.98.02-3.164.047-6.327.1-9.494.018-1.579.069-3.178.098-4.746.032-1.575.052-3.155.063-4.734.05-6.318.034-12.642.014-18.966L.213 3.85Z" fill="#333"/></g><path d="M2.057 4c.016.54.011.875.016 1.283l.01 1.188.016 2.375.03 4.748.042 9.497c.019 6.332.033 12.663-.019 19-.011 1.584-.03 3.169-.063 4.755-.031 1.595-.081 3.16-.102 4.745-.052 3.16-.08 6.323-.1 9.487-.04 6.327-.052 12.656-.046 18.984.007 6.33.029 12.659.085 18.986.029 3.164.064 6.327.122 9.487l.176 9.495c.12 6.328.251 12.655.434 18.978.091 3.162.2 6.322.33 9.48.135 3.158.29 6.314.513 9.459l-.713-.687h.001c4.647.138 9.313.195 13.975.257l13.986.14c9.325.084 18.651.137 27.977.166 9.326.026 18.652.029 27.977-.02 4.661-.026 9.323-.064 13.982-.135 2.329-.036 4.657-.082 6.984-.135 1.163-.027 2.325-.05 3.483-.087l1.731-.065c.57-.028 1.155-.056 1.683-.113l-.631.732c-.181-6.288-.208-12.592-.306-18.889l-.277-18.9c-.09-6.301-.194-12.597-.245-18.908-.018-6.296-.124-12.593-.205-18.894l-.261-18.901c-.082-6.302-.168-12.6-.197-18.91l.003-37.807.687.74a203.65 203.65 0 0 1-3.47-.065l-3.487-.106a990.278 990.278 0 0 0-6.986-.166c-4.658-.094-9.318-.168-13.979-.233-9.322-.13-18.645-.225-27.968-.298-9.323-.074-18.646-.128-27.969-.148-4.661-.009-9.323-.01-13.982.01-2.33.009-4.66.024-6.987.05a404.13 404.13 0 0 0-3.49.059c-.58.014-1.16.03-1.735.052-.288.01-.575.024-.857.04-.142.01-.28.019-.414.03l-.184.02-.058.01c-.004 0-.003 0 .022-.007.017-.006.027-.006.092-.038-.022-.02.367-.068.374-.741Z" fill="#fff"/><path d="M53.472 89.964c-.853-.05-1.583-.416-2.19-1.099-.605-.703-.883-1.471-.834-2.303.084-1.435 1.519-3.125 4.304-5.069l7.786-5.177c2.819-2.15 4.284-4.183 4.397-6.096.142-2.412-.86-4.704-3.008-6.876-2.068-2.104-4.328-3.228-6.783-3.372-1.31-.077-3.013.5-5.11 1.734-2.096 1.212-3.383 1.805-3.861 1.776-.853-.05-1.57-.436-2.154-1.16-.563-.72-.82-1.508-.77-2.36.097-1.644 1.784-3.183 5.061-4.618 2.935-1.288 5.339-1.878 7.21-1.767 4.18.245 7.88 2.1 11.1 5.567 3.218 3.465 4.705 7.278 4.46 11.437-.178 3.037-1.314 5.673-3.407 7.908-1.248 1.346-3.518 3.049-6.811 5.109-3.318 2.121-5.643 3.863-6.975 5.225-.778.81-1.583 1.19-2.415 1.141Zm-2.413 11.754c-.915-.054-1.728-.415-2.44-1.083-.693-.646-1.014-1.405-.962-2.279.076-1.29.487-2.434 1.235-3.433.838-1.12 1.86-1.644 3.066-1.573 1.997.117 2.923 1.403 2.779 3.857-.068 1.144-.399 2.158-.993 3.041-.73 1.042-1.624 1.532-2.685 1.47Z" fill="#31C48D"/><path d="m11.448.638.037 1.917.055 1.943c.024.65.029 1.302.027 1.956-.012.657-.03 1.314-.115 1.977-.046.35-.416.604-.83.565-.335-.03-.594-.247-.655-.514a16.4 16.4 0 0 1-.3-1.97 22.483 22.483 0 0 1-.098-1.99 20.48 20.48 0 0 1 .07-2.007c.06-.672.15-1.348.332-2.022.094-.341.494-.555.896-.477.341.067.575.323.58.608l.001.014Zm6.984.007c0 .633.007 1.274.027 1.918l.06 1.944c.02.65.054 1.301.047 1.957-.006.655-.027 1.313-.13 1.978-.055.352-.43.598-.84.553-.324-.036-.57-.243-.636-.499v-.003a12.776 12.776 0 0 1-.314-1.97 22.61 22.61 0 0 1-.079-1.991c0-.668.023-1.336.078-2.008.06-.673.146-1.348.319-2.024.087-.343.484-.56.884-.485.348.064.585.328.585.62l-.001.01Zm7.001 0c0 .633.007 1.274.027 1.918l.06 1.944c.019.65.053 1.301.046 1.957-.006.655-.026 1.313-.129 1.978-.054.352-.431.598-.842.553-.322-.036-.57-.243-.636-.499v-.003a12.774 12.774 0 0 1-.313-1.97 22.61 22.61 0 0 1-.079-1.991c0-.668.023-1.336.076-2.008.062-.673.148-1.348.321-2.024.087-.343.483-.56.885-.485.346.064.584.328.584.62v.01Zm7.014-.007.039 1.917.053 1.943c.024.65.03 1.302.028 1.956-.013.657-.03 1.314-.115 1.977-.045.35-.417.604-.828.565-.336-.03-.596-.247-.657-.514a16.39 16.39 0 0 1-.3-1.97 22.942 22.942 0 0 1-.098-1.99 20.48 20.48 0 0 1 .07-2.007c.06-.672.15-1.348.333-2.022.092-.341.493-.555.896-.477.341.067.573.323.58.608v.014Zm8 0 .039 1.917.053 1.943c.024.65.03 1.302.028 1.956-.013.657-.03 1.314-.116 1.977-.044.35-.416.604-.827.565-.336-.03-.595-.247-.656-.514a16.634 16.634 0 0 1-.3-1.97 22.514 22.514 0 0 1-.1-1.99c-.007-.665.013-1.334.07-2.007.061-.672.151-1.348.333-2.022.094-.341.495-.555.897-.477.341.067.573.323.58.608v.014Zm6.988.006c0 1.267.047 2.562.089 3.861.018.65.051 1.3.041 1.957-.008.655-.027 1.313-.126 1.978-.053.351-.428.6-.839.555-.325-.035-.575-.244-.639-.502V8.49a13.345 13.345 0 0 1-.311-1.97 22.164 22.164 0 0 1-.083-1.991c-.002-.666.02-1.336.075-2.008.063-.672.148-1.347.323-2.024.088-.342.485-.558.886-.483.348.065.584.329.584.62v.01ZM53.51.633l.049 3.859c.006.65.011 1.302.006 1.955a38.995 38.995 0 0 1-.052 1.977c-.02.35-.203.607-.41.573-.172-.028-.305-.247-.334-.522a34.909 34.909 0 0 1-.145-1.97 47.488 47.488 0 0 1-.056-1.989 40.13 40.13 0 0 1 .033-2.007c.029-.672.076-1.347.17-2.021.048-.341.25-.552.452-.47.17.068.284.322.288.604v.011Zm7.92.014c-.002.633.005 1.273.025 1.918.014.645.036 1.293.062 1.944.017.65.053 1.301.05 1.957-.005.655-.026 1.314-.132 1.979-.057.351-.436.597-.845.549-.32-.038-.565-.241-.631-.495v-.003a11.973 11.973 0 0 1-.317-1.97 25.256 25.256 0 0 1-.075-1.992c.002-.668.024-1.336.079-2.008.062-.673.146-1.348.316-2.025.087-.342.482-.56.882-.487.35.064.587.33.586.623v.01Zm7.003-.002c0 .633.006 1.274.026 1.918l.06 1.944c.02.65.054 1.301.047 1.957-.006.655-.026 1.313-.13 1.978-.053.352-.431.598-.841.553-.323-.036-.57-.243-.636-.499v-.003a12.619 12.619 0 0 1-.313-1.97 22.61 22.61 0 0 1-.079-1.991 24.1 24.1 0 0 1 .077-2.008c.061-.673.147-1.348.32-2.024.087-.343.483-.56.883-.485.349.064.586.328.586.62v.01Zm7.005-.002c.004 1.266.05 2.56.09 3.86.018.65.048 1.3.037 1.956-.008.655-.028 1.313-.123 1.978-.05.351-.424.602-.836.558-.327-.035-.58-.244-.643-.505v-.002a14.176 14.176 0 0 1-.308-1.97 22.159 22.159 0 0 1-.088-1.99 22.98 22.98 0 0 1 .076-2.009c.06-.67.148-1.346.323-2.022.09-.342.489-.558.89-.482.346.066.581.328.582.618v.01ZM81.45.637l.041 1.916.053 1.942c.02.65.026 1.302.022 1.956-.011.656-.03 1.314-.112 1.977-.043.35-.412.605-.824.568-.338-.03-.602-.248-.66-.518a16.874 16.874 0 0 1-.298-1.97 22.89 22.89 0 0 1-.103-1.988c-.007-.666.008-1.335.068-2.007.06-.672.151-1.348.336-2.022.093-.341.496-.554.899-.474.34.068.573.322.577.606v.014Zm7.977.011c-.004.633.003 1.274.022 1.919l.029.969.034.975c.017.65.055 1.301.055 1.957-.001.656-.025 1.314-.135 1.98-.06.35-.44.595-.85.546-.316-.04-.558-.242-.625-.493v-.003a11.4 11.4 0 0 1-.32-1.97 26.482 26.482 0 0 1-.07-1.994c.003-.666.024-1.334.08-2.007.06-.673.145-1.348.313-2.025.085-.342.48-.561.88-.488.35.063.59.33.587.624v.01ZM96.42.65c-.008.634 0 1.275.016 1.92.016.646.04 1.295.064 1.946.037 1.302.165 2.607-.076 3.939-.064.352-.448.592-.858.537-.31-.04-.545-.237-.615-.483v-.003c-.367-1.302-.374-2.632-.384-3.966a24.81 24.81 0 0 1 .08-2.01c.057-.672.143-1.348.309-2.025.083-.343.475-.563.875-.492.352.064.592.33.588.627v.01Zm7.024-.01c.008.633.017 1.273.036 1.917l.055 1.943c.024.65.035 1.302.031 1.955-.013.657-.028 1.315-.118 1.978-.047.35-.419.603-.831.563-.333-.033-.589-.246-.651-.51v-.002a15.69 15.69 0 0 1-.304-1.97 22.36 22.36 0 0 1-.093-1.99 21.13 21.13 0 0 1 .07-2.008c.061-.672.151-1.348.331-2.022.092-.342.491-.556.893-.478.343.066.578.326.581.613v.01Zm3.767 148.775c-.948.247-1.888.361-2.827.442-.94.089-1.878.11-2.814.132-.937.028-1.873-.003-2.808-.029a44.886 44.886 0 0 1-2.798-.208h-.004c-.23-.024-.407-.363-.392-.755.013-.367.19-.651.4-.668.941-.07 1.87-.077 2.804-.096l2.792-.005c.93.001 1.859-.021 2.786-.037.926-.032 1.853-.07 2.759-.189h.006c.232-.031.433.263.451.654.016.373-.141.702-.355.759Zm.029-2.561a5.118 5.118 0 0 1-.829.126 8.871 8.871 0 0 1-.832.018 9.565 9.565 0 0 1-1.666-.156c-.234-.047-.386-.259-.337-.477a.426.426 0 0 1 .406-.32h.006a60.22 60.22 0 0 1 1.591-.038c.267-.003.533-.011.799-.004a7.1 7.1 0 0 1 .799.054l.013.002c.239.03.406.237.373.459a.42.42 0 0 1-.323.336Zm-95.013 2.999c-.28.058-.551.095-.828.117a9.57 9.57 0 0 1-.83.03 8.35 8.35 0 0 1-1.664-.16c-.234-.05-.38-.268-.327-.485a.43.43 0 0 1 .395-.314h.007c.53-.033 1.058-.035 1.589-.04.265-.002.53 0 .797.006.266.005.538.022.799.047l.011.001c.24.022.414.221.389.443a.42.42 0 0 1-.338.355Z" fill="#333"/></svg>