<svg width="362" height="56" viewBox="0 0 362 56" fill="none" xmlns="http://www.w3.org/2000/svg"><rect x=".5" y=".5" width="361" height="55" rx="27.5" fill="#fff"/><path d="M75.111 28c0-6.351-5.148-11.5-11.5-11.5-6.351 0-11.5 5.149-11.5 11.5 0 5.74 4.206 10.498 9.704 11.36v-8.036h-2.92V28h2.92v-2.534c0-2.882 1.716-4.474 4.343-4.474 1.258 0 2.574.225 2.574.225v2.83h-1.45c-1.428 0-1.874.886-1.874 1.796V28h3.19l-.51 3.324h-2.68v8.036c5.498-.862 9.703-5.62 9.703-11.36Z" fill="#1877F2"/><path d="M98.875 29.297h1.953a4.504 4.504 0 0 1-.625 1.992 3.717 3.717 0 0 1-1.492 1.367c-.64.334-1.42.5-2.336.5-.703 0-1.336-.125-1.898-.375a4.162 4.162 0 0 1-1.446-1.078 4.877 4.877 0 0 1-.922-1.695c-.208-.662-.312-1.401-.312-2.219v-.945c0-.818.107-1.558.32-2.219a4.903 4.903 0 0 1 .938-1.695 4.052 4.052 0 0 1 1.46-1.086c.573-.25 1.217-.375 1.93-.375.907 0 1.672.166 2.297.5.625.333 1.11.794 1.453 1.383.349.588.563 1.263.641 2.023h-1.953c-.052-.49-.167-.909-.344-1.258a1.771 1.771 0 0 0-.766-.797c-.338-.187-.78-.28-1.328-.28-.448 0-.838.082-1.172.25a2.212 2.212 0 0 0-.835.733c-.225.323-.394.722-.508 1.196a7.116 7.116 0 0 0-.164 1.61v.96c0 .573.05 1.094.148 1.563.104.463.26.861.469 1.195.213.333.484.591.812.773.328.183.722.274 1.18.274.557 0 1.008-.089 1.352-.266.349-.177.611-.435.789-.773.182-.344.302-.763.359-1.258Zm3.187-.43v-.18c0-.609.089-1.174.266-1.695.177-.526.432-.982.766-1.367.338-.39.75-.693 1.234-.906.49-.219 1.042-.328 1.656-.328.62 0 1.172.109 1.657.328.489.213.903.515 1.242.906.338.385.596.841.773 1.367.177.521.266 1.086.266 1.695v.18c0 .61-.089 1.175-.266 1.695a4.069 4.069 0 0 1-.773 1.368c-.339.385-.75.687-1.235.906-.484.214-1.033.32-1.648.32-.62 0-1.174-.106-1.664-.32a3.58 3.58 0 0 1-1.234-.906 4.049 4.049 0 0 1-.774-1.367 5.237 5.237 0 0 1-.266-1.696Zm1.883-.18v.18c0 .38.039.74.117 1.078.079.339.201.636.368.89.166.256.38.457.64.602.261.146.571.22.93.22.349 0 .651-.074.906-.22.261-.145.474-.346.641-.601a2.73 2.73 0 0 0 .367-.89c.083-.34.125-.699.125-1.079v-.18c0-.375-.042-.729-.125-1.062a2.724 2.724 0 0 0-.375-.898 1.79 1.79 0 0 0-.641-.61 1.77 1.77 0 0 0-.914-.226c-.354 0-.661.075-.922.226a1.807 1.807 0 0 0-.632.61c-.167.26-.289.56-.368.898a4.652 4.652 0 0 0-.117 1.063Zm9.422-2.335V33h-1.883v-8.453h1.774l.109 1.805Zm-.336 2.109-.609-.008a5.475 5.475 0 0 1 .25-1.648c.167-.5.396-.93.687-1.29a3.04 3.04 0 0 1 1.063-.828 3.13 3.13 0 0 1 1.375-.296c.406 0 .773.057 1.101.172.334.109.618.289.852.539.24.25.422.575.547.976.125.396.187.883.187 1.461V33h-1.89v-5.469c0-.406-.06-.726-.18-.96a1.007 1.007 0 0 0-.508-.509c-.218-.104-.492-.156-.82-.156a1.82 1.82 0 0 0-.867.203c-.255.136-.472.32-.649.555a2.688 2.688 0 0 0-.398.813 3.348 3.348 0 0 0-.141.984Zm11.25-3.914v1.375h-4.765v-1.375h4.765Zm-3.39-2.07h1.882v8.187c0 .26.037.461.11.602a.585.585 0 0 0 .32.273c.136.047.294.07.477.07.13 0 .255-.007.375-.023a3.82 3.82 0 0 0 .289-.047l.008 1.438a4.888 4.888 0 0 1-.547.125 4.025 4.025 0 0 1-.703.054c-.433 0-.816-.075-1.149-.226a1.69 1.69 0 0 1-.781-.758c-.188-.35-.281-.813-.281-1.39v-8.305Zm6.859 2.07V33h-1.891v-8.453h1.891Zm-2.016-2.219a.96.96 0 0 1 .282-.71c.192-.194.458-.29.796-.29.334 0 .597.096.79.29a.953.953 0 0 1 .289.71.943.943 0 0 1-.289.703c-.193.188-.456.282-.79.282-.338 0-.604-.094-.796-.282a.952.952 0 0 1-.282-.703Zm5.946 4.024V33h-1.883v-8.453h1.773l.11 1.805Zm-.336 2.109-.61-.008a5.538 5.538 0 0 1 .25-1.648c.167-.5.396-.93.688-1.29a3.045 3.045 0 0 1 1.062-.828c.412-.197.87-.296 1.375-.296.407 0 .774.057 1.102.172.333.109.617.289.851.539.24.25.422.575.547.976.125.396.188.883.188 1.461V33h-1.891v-5.469c0-.406-.06-.726-.179-.96a1.007 1.007 0 0 0-.508-.509c-.219-.104-.492-.156-.821-.156-.322 0-.612.068-.867.203a1.95 1.95 0 0 0-.648.555 2.69 2.69 0 0 0-.399.813c-.093.307-.14.635-.14.984Zm12.461 2.547v-6.461h1.89V33h-1.781l-.109-1.992Zm.265-1.758.633-.016c0 .568-.062 1.091-.187 1.57a3.649 3.649 0 0 1-.578 1.243 2.71 2.71 0 0 1-1 .82c-.407.193-.894.29-1.461.29-.412 0-.789-.06-1.133-.18a2.322 2.322 0 0 1-.891-.555c-.245-.25-.435-.576-.57-.977-.136-.4-.203-.88-.203-1.437v-5.461h1.882v5.476c0 .308.037.566.11.774.073.203.172.367.297.492s.271.214.437.266c.167.052.344.078.532.078.536 0 .958-.104 1.265-.313.313-.213.534-.5.664-.86a3.4 3.4 0 0 0 .203-1.21Zm7.282 3.906a4.512 4.512 0 0 1-1.696-.304 3.741 3.741 0 0 1-1.281-.868 3.852 3.852 0 0 1-.805-1.304 4.58 4.58 0 0 1-.281-1.617v-.313c0-.662.096-1.26.289-1.797a4.08 4.08 0 0 1 .805-1.375c.344-.385.75-.68 1.219-.883a3.785 3.785 0 0 1 1.523-.304c.604 0 1.133.101 1.586.304.453.203.828.49 1.125.86.302.364.526.8.672 1.304.151.506.226 1.063.226 1.672v.805h-6.531v-1.352h4.672v-.148a2.635 2.635 0 0 0-.203-.953 1.622 1.622 0 0 0-.555-.719c-.25-.182-.583-.273-1-.273a1.7 1.7 0 0 0-.836.203c-.239.13-.44.32-.601.57-.162.25-.287.552-.375.906a5.057 5.057 0 0 0-.125 1.18v.313c0 .37.049.713.148 1.03.104.313.255.587.453.821.198.234.438.42.719.555.281.13.602.195.961.195.453 0 .857-.091 1.211-.273.354-.183.661-.44.922-.774l.992.961a3.847 3.847 0 0 1-.711.766 3.55 3.55 0 0 1-1.07.586c-.417.15-.901.226-1.453.226Zm11.132-2.031 1.954-6.578h1.203l-.329 1.969L163.344 33h-1.078l.218-1.875Zm-1.148-6.578 1.523 6.61.125 1.843h-1.203l-2.289-8.453h1.844Zm6.133 6.531 1.476-6.531h1.836L168.5 33h-1.203l.172-1.922Zm-1.625-6.531 1.929 6.5.243 1.953h-1.078l-1.993-6.492-.328-1.961h1.227Zm8.234 0V33h-1.89v-8.453h1.89Zm-2.016-2.219a.96.96 0 0 1 .282-.71c.192-.194.458-.29.797-.29.333 0 .596.096.789.29a.953.953 0 0 1 .289.71.943.943 0 0 1-.289.703c-.193.188-.456.282-.789.282-.339 0-.605-.094-.797-.282a.952.952 0 0 1-.282-.703Zm7.954 2.219v1.375h-4.766v-1.375h4.766Zm-3.391-2.07h1.883v8.187c0 .26.036.461.109.602a.584.584 0 0 0 .321.273c.135.047.294.07.476.07.13 0 .255-.007.375-.023a3.75 3.75 0 0 0 .289-.047l.008 1.438a4.837 4.837 0 0 1-.547.125 4.017 4.017 0 0 1-.703.054c-.432 0-.815-.075-1.148-.226a1.692 1.692 0 0 1-.782-.758c-.187-.35-.281-.813-.281-1.39v-8.305ZM183.328 21v12h-1.875V21h1.875ZM183 28.46l-.609-.007a5.513 5.513 0 0 1 .242-1.617c.161-.495.385-.924.672-1.29.291-.369.64-.653 1.047-.85a2.976 2.976 0 0 1 1.351-.305c.417 0 .792.057 1.125.172.339.114.63.299.875.554.245.25.43.578.555.985.13.4.195.89.195 1.468V33h-1.891v-5.445c0-.407-.059-.73-.179-.97a1.044 1.044 0 0 0-.508-.515c-.224-.11-.497-.164-.82-.164-.339 0-.638.068-.899.203-.255.136-.468.32-.64.555a2.564 2.564 0 0 0-.391.813 3.761 3.761 0 0 0-.125.984Zm13.492-6.835V33h-1.961V21.625h1.961Zm4.641 4.977v1.554h-5.141v-1.554h5.141Zm.648-4.977v1.563h-5.789v-1.563h5.789Zm5.875 9.68v-4.032a1.72 1.72 0 0 0-.164-.78 1.146 1.146 0 0 0-.5-.509c-.219-.12-.495-.18-.828-.18-.307 0-.573.053-.797.157a1.287 1.287 0 0 0-.523.422 1.018 1.018 0 0 0-.188.601h-1.875c0-.333.081-.656.242-.968a2.59 2.59 0 0 1 .704-.836 3.505 3.505 0 0 1 1.101-.578 4.58 4.58 0 0 1 1.438-.211c.635 0 1.198.106 1.687.32.495.213.883.536 1.164.969.287.427.43.963.43 1.61v3.757c0 .385.026.732.078 1.039.057.302.138.565.242.789V33h-1.929a3.307 3.307 0 0 1-.211-.773 6.302 6.302 0 0 1-.071-.922Zm.274-3.446.015 1.164h-1.351a3.74 3.74 0 0 0-.922.102 1.89 1.89 0 0 0-.664.281c-.177.125-.31.276-.399.453a1.334 1.334 0 0 0-.132.602c0 .224.052.43.156.617.104.182.255.326.453.43.203.104.448.156.734.156.386 0 .722-.078 1.008-.234.292-.162.521-.357.688-.586.166-.235.255-.456.265-.664l.61.836c-.063.213-.17.442-.321.687-.151.245-.349.48-.593.703a2.951 2.951 0 0 1-2.024.75c-.552 0-1.044-.11-1.476-.328a2.622 2.622 0 0 1-1.016-.898 2.328 2.328 0 0 1-.367-1.29c0-.447.083-.843.25-1.187a2.33 2.33 0 0 1 .75-.875 3.626 3.626 0 0 1 1.218-.531 6.53 6.53 0 0 1 1.641-.188h1.477Zm7.039 3.797c.307 0 .583-.06.828-.18.25-.124.45-.296.601-.515.157-.219.243-.471.258-.758h1.774a2.642 2.642 0 0 1-.485 1.492 3.353 3.353 0 0 1-1.242 1.07 3.74 3.74 0 0 1-1.711.391c-.646 0-1.208-.11-1.687-.328a3.342 3.342 0 0 1-1.196-.922 4.06 4.06 0 0 1-.718-1.351 5.552 5.552 0 0 1-.235-1.64v-.274c0-.584.078-1.13.235-1.641.161-.516.401-.969.718-1.36.318-.39.717-.695 1.196-.913.479-.224 1.039-.336 1.679-.336.677 0 1.271.135 1.782.406a3 3 0 0 1 1.203 1.117c.297.474.45 1.026.461 1.656h-1.774a1.888 1.888 0 0 0-.234-.843 1.552 1.552 0 0 0-.578-.61 1.658 1.658 0 0 0-.883-.226c-.38 0-.695.078-.945.234-.25.151-.446.36-.586.625a3.05 3.05 0 0 0-.305.883 5.79 5.79 0 0 0-.086 1.008v.273c0 .349.029.688.086 1.016.057.328.156.622.297.883.146.255.344.46.594.617.25.15.567.226.953.226Zm8.633 1.5a4.512 4.512 0 0 1-1.696-.304 3.741 3.741 0 0 1-1.281-.868 3.852 3.852 0 0 1-.805-1.304 4.58 4.58 0 0 1-.281-1.617v-.313c0-.662.096-1.26.289-1.797a4.08 4.08 0 0 1 .805-1.375c.344-.385.75-.68 1.219-.883a3.785 3.785 0 0 1 1.523-.304c.604 0 1.133.101 1.586.304.453.203.828.49 1.125.86.302.364.526.8.672 1.304.151.506.226 1.063.226 1.672v.805h-6.531v-1.352h4.672v-.148a2.635 2.635 0 0 0-.203-.953 1.622 1.622 0 0 0-.555-.719c-.25-.182-.583-.273-1-.273a1.7 1.7 0 0 0-.836.203c-.239.13-.44.32-.601.57-.162.25-.287.552-.375.906a5.057 5.057 0 0 0-.125 1.18v.313c0 .37.049.713.148 1.03.104.313.255.587.453.821.198.234.438.42.719.555.281.13.602.195.961.195.453 0 .857-.091 1.211-.273.354-.183.661-.44.922-.774l.992.961a3.847 3.847 0 0 1-.711.766 3.55 3.55 0 0 1-1.07.586c-.417.15-.901.226-1.453.226ZM228.461 21h1.883v10.195l-.18 1.805h-1.703V21Zm7.398 7.695v.164c0 .625-.07 1.2-.211 1.727-.135.52-.343.974-.625 1.36a2.89 2.89 0 0 1-1.031.898c-.406.208-.877.312-1.414.312-.526 0-.984-.099-1.375-.297a2.724 2.724 0 0 1-.984-.843 4.652 4.652 0 0 1-.633-1.305 8.6 8.6 0 0 1-.344-1.672v-.523a8.44 8.44 0 0 1 .344-1.672c.161-.506.372-.94.633-1.305.265-.37.591-.654.976-.852.391-.197.847-.296 1.367-.296.542 0 1.019.104 1.43.312a2.81 2.81 0 0 1 1.039.89c.276.381.482.834.617 1.36.141.526.211 1.107.211 1.742Zm-1.882.164v-.164c0-.38-.032-.737-.094-1.07a2.82 2.82 0 0 0-.313-.89 1.56 1.56 0 0 0-.578-.602c-.239-.151-.539-.227-.898-.227-.334 0-.62.058-.86.172a1.73 1.73 0 0 0-.601.469 2.314 2.314 0 0 0-.383.687c-.089.26-.148.542-.18.844v1.414c.047.39.146.75.297 1.078.156.323.375.584.656.782.282.192.644.289 1.086.289.349 0 .644-.07.883-.211.24-.14.43-.336.57-.586a2.82 2.82 0 0 0 .313-.89c.068-.34.102-.704.102-1.095Zm3.117.008v-.18c0-.609.088-1.174.265-1.695.177-.526.433-.982.766-1.367.339-.39.75-.693 1.234-.906.49-.219 1.042-.328 1.657-.328.619 0 1.172.109 1.656.328.489.213.904.515 1.242.906.339.385.596.841.774 1.367.177.521.265 1.086.265 1.695v.18c0 .61-.088 1.175-.265 1.695a4.071 4.071 0 0 1-.774 1.368 3.58 3.58 0 0 1-1.234.906c-.485.214-1.034.32-1.649.32-.62 0-1.174-.106-1.664-.32a3.58 3.58 0 0 1-1.234-.906 4.049 4.049 0 0 1-.774-1.367 5.237 5.237 0 0 1-.265-1.696Zm1.883-.18v.18c0 .38.039.74.117 1.078.078.339.2.636.367.89.167.256.38.457.641.602.26.146.57.22.929.22a1.8 1.8 0 0 0 .907-.22 1.82 1.82 0 0 0 .64-.601 2.73 2.73 0 0 0 .367-.89c.084-.34.125-.699.125-1.079v-.18a4.33 4.33 0 0 0-.125-1.062 2.724 2.724 0 0 0-.375-.898 1.788 1.788 0 0 0-.64-.61 1.764 1.764 0 0 0-.914-.226c-.355 0-.662.075-.922.226a1.818 1.818 0 0 0-.633.61c-.167.26-.289.56-.367.898a4.652 4.652 0 0 0-.117 1.063Zm7.195.18v-.18c0-.609.088-1.174.266-1.695a4.03 4.03 0 0 1 .765-1.367c.339-.39.75-.693 1.235-.906.489-.219 1.041-.328 1.656-.328.62 0 1.172.109 1.656.328.49.213.904.515 1.242.906.339.385.597.841.774 1.367.177.521.265 1.086.265 1.695v.18c0 .61-.088 1.175-.265 1.695a4.054 4.054 0 0 1-.774 1.368 3.58 3.58 0 0 1-1.234.906c-.485.214-1.034.32-1.649.32-.619 0-1.174-.106-1.664-.32a3.58 3.58 0 0 1-1.234-.906 4.046 4.046 0 0 1-.773-1.367 5.21 5.21 0 0 1-.266-1.696Zm1.883-.18v.18c0 .38.039.74.117 1.078.078.339.2.636.367.89.167.256.38.457.641.602.26.146.57.22.929.22a1.8 1.8 0 0 0 .907-.22c.26-.145.474-.346.64-.601a2.73 2.73 0 0 0 .367-.89c.084-.34.125-.699.125-1.079v-.18a4.33 4.33 0 0 0-.125-1.062 2.724 2.724 0 0 0-.375-.898 1.788 1.788 0 0 0-.64-.61c-.255-.15-.56-.226-.914-.226s-.662.075-.922.226a1.818 1.818 0 0 0-.633.61c-.167.26-.289.56-.367.898a4.652 4.652 0 0 0-.117 1.063ZM257.508 21v12h-1.891V21h1.891Zm5.25 3.547-3.68 4.078-2.016 2.063-.492-1.594 1.524-1.883 2.39-2.664h2.274ZM260.891 33l-2.743-3.969 1.188-1.32L263.07 33h-2.179Z" fill="#1D1C2B"/><rect x=".5" y=".5" width="361" height="55" rx="27.5" stroke="#E0E0E9"/></svg>