<svg width="122" height="121" viewBox="0 0 122 121" fill="none" xmlns="http://www.w3.org/2000/svg"><path opacity=".7" d="M50.16 64.272c-1.517 1.766-8.598 3.219-14.598 5.951-12.406 5.644-12.668 15.215-12.668 35.286l38.536 4.995V64.271H50.16Z" fill="#B9B9B9"/><path opacity=".9" d="M72.701 64.272c1.512 1.766 8.593 3.219 14.598 5.951 12.406 5.644 12.668 15.215 12.668 35.286l-38.537 4.995V64.271h11.271Z" fill="#B9B9B9"/><path opacity=".8" d="M61.43 90.138c-9.387 0-22.542-1.403-29.797-17.785 0 0 8.505-9.36 10.986-18.398 2.679-9.741-3.73-29.32 18.811-31.998v68.181Z" fill="#B9B9B9"/><path d="M61.43 90.138c9.387 0 22.542-1.403 29.798-17.785 0 0-8.505-9.36-10.987-18.398-2.678-9.741 3.731-29.32-18.81-31.998v68.181Z" fill="#B9B9B9"/><path d="M75.022 47.033c0-9.199-6.213-15.302-13.665-15.302v37.296c7.025.01 13.665-10.597 13.665-21.994Z" fill="#DEDEDE"/><path d="M47.692 47.033c0-9.199 6.212-15.302 13.665-15.302v37.296c-7.026.01-13.665-10.597-13.665-21.994Z" fill="#CFCECD"/><path opacity=".8" d="M61.522 40.479a17.826 17.826 0 0 1 13.66 6.297c-.124-9.057-5.743-15.565-13.66-15.565-8.321 0-13.692 6.568-13.816 15.638a18.243 18.243 0 0 1 13.816-6.37Z" fill="#B9B9B9"/><path d="M56.629 60.652s.804 3.003 4.801 3.003v-2.787l-4.801-.216Z" fill="#8B8B8B"/><path d="M60.213 59.483c-.717 0-2.973 1.169-3.584 1.169 0 0 .12.547 2.196.372 1.585-.138 1.65.525 2.605.525v-1.592c-.367 0-.5-.474-1.217-.474Zm6.024 1.169s-.81 3.003-4.807 3.003v-2.787l4.807-.216Z" fill="#8B8B8B"/><path d="M62.648 59.483c.717 0 2.977 1.169 3.589 1.169 0 0-.125.547-2.197.372-1.59-.138-1.65.525-2.61.525v-1.592c.373 0 .501-.474 1.218-.474Zm4.167-13.963c4.062-.897 5.206.782 5.206.782-2.835-1.191-5.564-.124-7.48.386-1.65.46-1.69-.244-1.631-.745.078.17.661.29 3.905-.423Zm-10.917 0c-4.062-.897-5.206.782-5.206.782 2.835-1.191 5.565-.124 7.48.386 1.65.46 1.692-.244 1.632-.745-.078.17-.662.29-3.906-.423Z" fill="#8B8B8B"/><path d="M61.178 120.503c-33.193 0-60.192-27.03-60.192-60.251S27.994 0 61.178 0c33.183 0 60.191 27.03 60.191 60.252 0 33.22-26.999 60.251-60.191 60.251Zm0-109.428a49.09 49.09 0 0 0-27.292 8.287A49.162 49.162 0 0 0 15.794 41.43a49.216 49.216 0 0 0-2.796 28.41 49.187 49.187 0 0 0 13.444 25.177 49.103 49.103 0 0 0 25.152 13.457 49.077 49.077 0 0 0 28.382-2.798 49.137 49.137 0 0 0 22.046-18.11 49.205 49.205 0 0 0 8.279-27.319 49.242 49.242 0 0 0-14.402-34.755A49.14 49.14 0 0 0 61.178 11.08v-.005Z" fill="#B9B9B9"/></svg>