<svg width="200" height="160" viewBox="0 0 200 160" fill="none" xmlns="http://www.w3.org/2000/svg"><g clip-path="url(#a)"><path d="M156.981 84.597a44.207 44.207 0 0 0 12.621-20.94 44.168 44.168 0 0 0-.445-24.44 44.212 44.212 0 0 0-13.375-20.466 44.297 44.297 0 0 0-46.485-7.121 44.245 44.245 0 0 0-18.9 15.522 44.18 44.18 0 0 0-1.995 46.939l-9.009 8.393 2.151 14.933-13.973-3.912-11.362 10.469 2.15 14.933-13.972-3.912-9.69 9.036 1.306 9.092-8.513-2.369-5.644 5.253-.846 13.83 20.647 5.18 67.016-62.449a44.277 44.277 0 0 0 48.318-7.971Zm-6.545-54.386a12.687 12.687 0 0 1-2.598 19.453 12.713 12.713 0 0 1-18.589-6.348 12.686 12.686 0 0 1 3.242-13.73 12.691 12.691 0 0 1 13.925-2.27 12.696 12.696 0 0 1 4.02 2.895Z" fill="#333"/><path d="M150.45 30.588s-.827-.772-2.518-1.837a12.605 12.605 0 0 0-7.98-1.837 12.215 12.215 0 0 0-10.112 7.881 12.193 12.193 0 0 0 8.226 16.006 12.223 12.223 0 0 0 12.304-3.616 12.19 12.19 0 0 0 2.93-5.981c.507-2.754.08-5.598-1.213-8.082-.92-1.836-1.71-2.571-1.637-2.645.074-.073.239.166.626.551a10.241 10.241 0 0 1 1.397 1.837 12.641 12.641 0 0 1 1.599 8.43 13.114 13.114 0 0 1-10.16 10.701 13.14 13.14 0 0 1-5.192.081 13.095 13.095 0 0 1-7.243-3.949 13.074 13.074 0 0 1-3.439-7.493 13.075 13.075 0 0 1 2.845-9.76 13.1 13.1 0 0 1 8.977-4.787 12.605 12.605 0 0 1 8.311 2.185 9.21 9.21 0 0 1 1.838 1.525c.313.55.478.753.441.79Z" fill="#333"/><path d="m156.996 84.974-.625.606-1.949 1.726a46.67 46.67 0 0 1-8.568 5.51 44.606 44.606 0 0 1-37.323.533h.368L42.011 155.78l-.202.183h-.257l-20.666-5.179-.404-.11v-.405c.257-4.316.551-9.036.827-13.83v-.221l.147-.128 5.645-5.272.22-.202.294.092 8.513 2.37-.68.606c-.405-2.847-.864-5.97-1.324-9.184v-.275l.22-.202 9.672-9.019.22-.22h.313l13.973 3.912-.699.606-2.151-14.932v-.294l.202-.202 2.997-2.774 8.274-7.733.22-.202h.313l13.973 3.931-.699.606c-.723-5.032-1.44-10.01-2.15-14.933v-.293l.22-.184 9.009-8.394-.11.661a44.984 44.984 0 0 1-5.755-20.204 43.12 43.12 0 0 1 .735-10.23 43.591 43.591 0 0 1 2.942-9.625 44.56 44.56 0 0 1 21.249-22.237 44.626 44.626 0 0 1 30.607-3.189 44.588 44.588 0 0 1 25.384 17.378 44.511 44.511 0 0 1 8.07 29.666 43.551 43.551 0 0 1-4.964 17.027l-.828 1.58-.901 1.396c-.606.9-1.103 1.836-1.673 2.516-1.195 1.433-2.114 2.718-3.015 3.673l-2.059 2.04c-.46.458-.717.679-.717.679s.22-.276.662-.753l1.967-2.094c.864-.919 1.839-2.223 2.923-3.674.552-.734 1.048-1.616 1.637-2.516l.882-1.396.791-1.58a43.488 43.488 0 0 0 4.762-16.88 43.798 43.798 0 0 0-8.177-28.96 43.872 43.872 0 0 0-24.945-16.866 43.909 43.909 0 0 0-29.952 3.18 43.844 43.844 0 0 0-20.839 21.726 43.133 43.133 0 0 0-2.85 9.404 41.142 41.142 0 0 0-.698 9.992 44.048 44.048 0 0 0 5.626 19.653l.22.368-.312.294-9.01 8.393.166-.477c.723 4.898 1.44 9.876 2.151 14.933l.13.845-.81-.24-13.973-3.912.515-.128-8.274 7.733-2.997 2.773.166-.477c.754 5.124 1.47 10.193 2.15 14.932l.13.845-.81-.239-13.936-3.967.533-.129-9.726 9.019.166-.459c.441 3.14.9 6.244 1.305 9.183l.11.827-.79-.221-8.513-2.406.497-.11-5.645 5.161.166-.367c-.294 4.794-.588 9.533-.864 13.83l-.386-.532 20.647 5.216-.46.129 67.108-62.34.166-.146h.202a44.495 44.495 0 0 0 36.882-.257 49.342 49.342 0 0 0 8.623-5.253l1.985-1.672.699-.44Z" fill="#333"/><path d="M155.525 79.94a44.216 44.216 0 0 0 12.582-20.957 44.177 44.177 0 0 0-.479-24.433 44.218 44.218 0 0 0-13.394-20.45 44.314 44.314 0 0 0-46.481-7.097 44.262 44.262 0 0 0-18.896 15.52 44.199 44.199 0 0 0-2.021 46.93l-8.99 8.376 2.15 14.932-13.973-3.912-11.27 10.506 2.15 14.933-13.972-3.912-9.671 9.055 1.305 9.091-8.512-2.387-5.663 5.253-.846 13.83 20.665 5.198 66.998-62.449a44.313 44.313 0 0 0 48.318-8.026Zm-6.546-54.367a12.68 12.68 0 0 1 2.278 13.922 12.713 12.713 0 0 1-23.464-.817 12.686 12.686 0 0 1 3.242-13.73 12.712 12.712 0 0 1 17.944.625Z" fill="#31C48D"/><path d="M148.98 25.573c-.092 0-.828-.77-2.519-1.836a12.697 12.697 0 0 0-7.998-1.837 12.218 12.218 0 0 0-10.143 7.882 12.201 12.201 0 0 0 2.514 12.589 12.226 12.226 0 0 0 12.394 3.39 12.229 12.229 0 0 0 5.649-3.559 12.207 12.207 0 0 0 2.934-5.994 12.846 12.846 0 0 0-1.195-8.1c-.919-1.837-1.728-2.553-1.636-2.626.091-.074.239.147.606.532a9.465 9.465 0 0 1 1.398 1.837 12.647 12.647 0 0 1 1.599 8.43 13.103 13.103 0 0 1-5.406 8.617 13.14 13.14 0 0 1-9.946 2.165 13.203 13.203 0 0 1-7.223-3.968 13.185 13.185 0 0 1-3.459-7.474 13.094 13.094 0 0 1 2.851-9.767 13.111 13.111 0 0 1 8.989-4.78 12.657 12.657 0 0 1 8.292 2.167 9.764 9.764 0 0 1 1.839 1.543c.312.588.57.753.46.79Z" fill="#333"/><path d="M155.525 79.94s-.202.221-.643.625l-1.949 1.727a45.835 45.835 0 0 1-8.568 5.51 44.764 44.764 0 0 1-15.72 4.225 45.29 45.29 0 0 1-21.585-3.674h.368l-66.814 62.431-.202.183h-.258l-20.647-5.161-.423-.11v-.422c.258-4.317.552-9.056.846-13.831v-.221l.166-.146 5.626-5.254.22-.202h.294l8.513 2.388-.68.588c-.405-2.829-.864-5.951-1.306-9.184v-.294l.203-.183 9.689-9.037.22-.202h.295l13.973 3.912-.699.606c-.68-4.72-1.415-9.808-2.15-14.932v-.276l.22-.202 2.978-2.792 8.274-7.714.239-.202h.294l13.973 3.912-.68.606c-.736-5.014-1.453-10.01-2.151-14.932v-.276l.202-.202 9.009-8.375-.11.66a45.537 45.537 0 0 1-5.755-20.203 44.796 44.796 0 0 1 3.677-19.837 44.558 44.558 0 0 1 10.163-14.678 44.607 44.607 0 0 1 15.114-9.516 44.645 44.645 0 0 1 34.975 1.486 44.6 44.6 0 0 1 14.25 10.764 44.544 44.544 0 0 1 10.963 33.211 44.516 44.516 0 0 1-5.046 17.12l-.827 1.562-.919 1.414c-.589.882-1.104 1.837-1.673 2.498-1.196 1.451-2.115 2.737-3.016 3.674-.901.937-1.563 1.543-2.041 2.038a9.081 9.081 0 0 1-.717.662s.203-.257.644-.735l1.967-2.094c.883-.918 1.839-2.222 2.924-3.673.569-.735 1.048-1.617 1.636-2.517.276-.459.588-.918.882-1.396l.791-1.58a44.213 44.213 0 0 0 .331-39.747A43.827 43.827 0 0 0 148.236 9.91a43.881 43.881 0 0 0-47.111 1.155A43.82 43.82 0 0 0 85.402 29.89a44.043 44.043 0 0 0-3.567 19.396 43.92 43.92 0 0 0 5.644 19.653l.203.367-.313.294c-2.978 2.755-5.975 5.51-9.009 8.394l.184-.478c.699 4.898 1.416 9.876 2.151 14.933l.11.827-.809-.22-13.973-3.913.515-.129-8.273 7.715-2.979 2.791.165-.477 2.151 14.933.11.826-.808-.22-13.973-3.913.515-.128-9.69 9.018.166-.477c.46 3.141.9 6.263 1.305 9.183l.129.809-.81-.221-8.512-2.388.515-.128-5.644 5.253.165-.349c-.294 4.794-.588 9.514-.846 13.83l-.404-.532 20.647 5.216-.46.11 66.961-62.045.166-.165.202.092a44.42 44.42 0 0 0 36.882-.239 49.63 49.63 0 0 0 8.604-5.271l2.004-1.653c.442-.46.699-.643.699-.643Z" fill="#333"/><path d="M151.462 76.506a62.48 62.48 0 0 0 5.938-7.494 37.573 37.573 0 0 0 4.56-10.194 38.537 38.537 0 0 0-1.733-25.998 38.585 38.585 0 0 0-17.885-18.965 36.257 36.257 0 0 0-10.461-3.545 44.797 44.797 0 0 0-5.681-.643 41.397 41.397 0 0 0-5.828.276 38.334 38.334 0 0 0-21.703 10.033A38.267 38.267 0 0 0 87.15 40.91a43.918 43.918 0 0 0-.68 5.786 42.022 42.022 0 0 0 .257 5.712A36.246 36.246 0 0 0 89.52 63.08a38.426 38.426 0 0 0 11.5 15.127 38.483 38.483 0 0 0 17.347 7.777c4.874.864 9.869.777 14.709-.258a37.403 37.403 0 0 0 10.498-3.82 64.481 64.481 0 0 0 7.888-5.4 5.873 5.873 0 0 1-.46.44l-1.379 1.231a18.01 18.01 0 0 1-2.372 1.837 25.957 25.957 0 0 1-3.474 2.223 36.383 36.383 0 0 1-10.554 4.059 39.216 39.216 0 0 1-31.697-6.594 39.553 39.553 0 0 1-12.87-16.255 37.002 37.002 0 0 1-2.905-11.02 41.44 41.44 0 0 1-.276-5.86 43.37 43.37 0 0 1 .68-5.95 39.24 39.24 0 0 1 11.817-21.485A39.308 39.308 0 0 1 120.243 8.84a35.336 35.336 0 0 1 11.822.404 36.91 36.91 0 0 1 10.737 3.673 39.498 39.498 0 0 1 15.352 14.015 39.184 39.184 0 0 1 4.394 32.05 36.912 36.912 0 0 1-4.78 10.231 28.942 28.942 0 0 1-2.464 3.325c-.617.801-1.3 1.55-2.04 2.24l-1.324 1.286-.478.441Z" fill="#333"/><path d="M149.66 45.116c0-.091.919-.955 2.151-2.938a14.68 14.68 0 0 0 2.096-9.386 14.426 14.426 0 0 0-9.301-11.966 14.448 14.448 0 0 0-14.876 2.948 14.335 14.335 0 0 0-4.302 7.806 13.998 13.998 0 0 0 .864 8.283 14.403 14.403 0 0 0 10.774 8.633c3.239.6 6.587.095 9.505-1.433 2.078-1.083 3.015-2.038 3.089-1.947.073.092-.202.276-.662.698a11.314 11.314 0 0 1-2.206 1.635 14.832 14.832 0 0 1-9.855 1.837 15.286 15.286 0 0 1-10.064-6.296 15.257 15.257 0 0 1-2.512-11.594 15.32 15.32 0 0 1 4.613-8.412 15.343 15.343 0 0 1 8.717-4.023 15.148 15.148 0 0 1 8.807 1.617 15.511 15.511 0 0 1 5.957 5.51 14.854 14.854 0 0 1 2.151 6.63 14.68 14.68 0 0 1-2.501 9.698 11.486 11.486 0 0 1-1.838 2.094c-.331.423-.589.643-.607.606ZM34.767 147.973c-.202-.22 14.893-14.693 33.701-32.161 18.809-17.467 34.253-31.592 34.455-31.371.203.22-14.874 14.694-33.7 32.179-18.828 17.486-34.235 31.574-34.456 31.353Z" fill="#333"/><path d="m43.096 60.27.607-1.378.827 1.249a6.157 6.157 0 0 0 2.685 2.296l1.36.606-1.25.826a6.1 6.1 0 0 0-2.28 2.682l-.625 1.36-.809-1.25a6.213 6.213 0 0 0-2.684-2.277l-1.38-.625 1.251-.808a6.376 6.376 0 0 0 2.298-2.682ZM2.004 50.094l.35-.79.477.735c.385.58.927 1.038 1.563 1.322l.79.35-.716.477a3.674 3.674 0 0 0-1.342 1.561l-.35.79-.478-.716a3.676 3.676 0 0 0-1.563-1.341l-.79-.35.735-.477a3.785 3.785 0 0 0 1.324-1.561Zm129.252 69.869.367-.789.478.716a3.677 3.677 0 0 0 1.545 1.341l.809.349-.736.477a3.532 3.532 0 0 0-1.323 1.561l-.35.79-.478-.734a3.674 3.674 0 0 0-1.563-1.323l-.79-.349.717-.477a3.531 3.531 0 0 0 1.324-1.562Zm63.265-35.816.607-1.378.827 1.268a6.455 6.455 0 0 0 2.684 2.277l1.361.606-1.269.9a6.335 6.335 0 0 0-2.279 2.682l-.607 1.36-.828-1.25a6.096 6.096 0 0 0-2.684-2.277l-1.36-.625 1.25-.808a6.324 6.324 0 0 0 2.298-2.755Zm-8.237-50.18 1.03-2.296 1.379 2.094a10.513 10.513 0 0 0 4.504 3.84l2.299 1.028-2.096 1.377a10.38 10.38 0 0 0-3.843 4.5l-1.03 2.296-1.379-2.094a10.513 10.513 0 0 0-4.504-3.839l-2.298-1.028 2.096-1.378a10.506 10.506 0 0 0 3.842-4.5ZM30.337 18.484l1.084-2.296 1.38 2.112a10.642 10.642 0 0 0 4.504 3.839l2.298 1.028-2.096 1.378a10.509 10.509 0 0 0-3.843 4.5l-1.03 2.296-1.378-2.112a10.643 10.643 0 0 0-4.505-3.84l-2.298-1.01 2.096-1.377a10.526 10.526 0 0 0 3.788-4.518Z" fill="#31C48D"/></g><defs><clipPath id="a"><path fill="#fff" d="M0 0h200v160H0z"/></clipPath></defs></svg>