<svg width="99" height="80" viewBox="0 0 99 80" fill="none" xmlns="http://www.w3.org/2000/svg"><path d="M48.5 23h-4v4h4v-4Zm6 0h-4v4h4v-4Zm-6 6h-4v4h4v-4Zm6 0h-4v4h4v-4Z" fill="#8E8E8E"/><path d="M57.5 20h-16c-1.1 0-2 .9-2 2v12c0 1.1.9 2 2 2h16c1.1 0 2-.9 2-2V22c0-1.1-.9-2-2-2Zm0 14h-16V22h16v12ZM45.713 58.028V59h-3.57v-.972h3.57Zm-3.228-6.137V59H41.26v-7.11h1.225Zm5.818 1.826V59H47.12v-5.283h1.182Zm-1.26-1.387c0-.179.059-.327.176-.444.12-.12.286-.18.498-.18.208 0 .373.06.493.18.12.117.18.265.18.444 0 .176-.06.322-.18.44-.12.117-.285.175-.493.175-.212 0-.378-.058-.498-.175a.596.596 0 0 1-.176-.44Zm6.013 5.24a.59.59 0 0 0-.088-.318c-.059-.098-.171-.186-.337-.264a3.267 3.267 0 0 0-.723-.215 6.236 6.236 0 0 1-.771-.22 2.448 2.448 0 0 1-.596-.317 1.336 1.336 0 0 1-.386-.44 1.216 1.216 0 0 1-.136-.585c0-.215.047-.418.141-.61.095-.193.23-.362.405-.508.176-.147.39-.262.64-.347.254-.085.537-.127.85-.127.442 0 .822.075 1.137.225.32.146.563.346.733.6.17.251.254.534.254.85h-1.177c0-.14-.036-.27-.108-.39a.747.747 0 0 0-.312-.299 1.07 1.07 0 0 0-.527-.117c-.202 0-.37.033-.503.098a.688.688 0 0 0-.293.244.623.623 0 0 0-.044.571.564.564 0 0 0 .176.19c.081.056.192.108.332.157.143.049.322.096.537.142.403.084.75.193 1.04.327.293.13.517.3.674.508.156.205.234.465.234.78 0 .235-.05.45-.151.645-.098.192-.241.36-.43.503a2.16 2.16 0 0 1-.679.328c-.26.078-.553.117-.879.117-.478 0-.884-.085-1.216-.254a1.939 1.939 0 0 1-.756-.66 1.56 1.56 0 0 1-.254-.84h1.137c.014.219.074.393.181.523.11.127.247.22.41.279.166.055.337.082.513.082.212 0 .389-.027.532-.083a.765.765 0 0 0 .327-.234.56.56 0 0 0 .113-.342Zm5.104-3.853v.86h-2.978v-.86h2.978Zm-2.119-1.294h1.177v5.117c0 .163.023.288.068.376a.366.366 0 0 0 .2.17c.085.03.184.045.298.045a2.354 2.354 0 0 0 .415-.044l.005.898a3.03 3.03 0 0 1-.342.078 2.508 2.508 0 0 1-.44.035c-.27 0-.509-.047-.717-.142a1.057 1.057 0 0 1-.488-.474c-.117-.218-.176-.507-.176-.869v-5.19Z" fill="#8E8E8E"/></svg>