<svg width="186" height="192" viewBox="0 0 186 192" fill="none" xmlns="http://www.w3.org/2000/svg"><g clip-path="url(#a)"><path d="m106.9 32.508-9.022-3.387c-1.015.813-2.9 1.478-4.981 1.478v18.613l17.051-5.741c-1.098-8.073-3.048-10.963-3.048-10.963Z" fill="#31C48D" opacity=".9" class="svg-elem-1"></path><path d="m78.916 32.508 9.022-3.387c1.012.813 2.9 1.478 4.978 1.478v18.613L75.868 43.47c1.099-8.073 3.048-10.963 3.048-10.963Z" fill="#31C48D" opacity=".7" class="svg-elem-2"></path><path d="m46.36 83.171 7.871-.332 2.034 8.886-9.905 23.67V83.171Z" fill="#DCAD79" class="svg-elem-3"></path><path d="m46.36 83.171-7.865-.332-1.979 8.886 9.844 23.183V83.171Z" fill="#E3BD94" class="svg-elem-4"></path><path d="M46.386 90.15s1.698.275 3.086-.457c1.976-1.039 6.85-3.8 6.85-5.973V68.377l-9.936-5.583V90.15Z" fill="#DCAD79" class="svg-elem-5"></path><path d="M55.533 70.467s1.218-1.32 2.256-.452c.715.603.219 5.95-.87 7.628-.377.574-1.473.43-1.473.43l.087-7.606Z" fill="#DCAD79" class="svg-elem-6"></path><path d="M37.238 70.467s-1.215-1.32-2.255-.452c-.713.603-.22 5.95.873 7.628.373.574 1.472.43 1.472.43l-.09-7.606Z" fill="#E3BD94" class="svg-elem-7"></path><path d="M46.386 90.15s-1.699.275-3.087-.457c-1.975-1.039-6.854-3.8-6.854-5.973V68.377l9.94-6.364v28.138Z" fill="#E3BD94" class="svg-elem-8"></path><path d="M47.036 78.088c.268-.458 1.125-1.529 1.76-.761.635.768-2.256 1.606-1.76.761Z" fill="#A86638" class="svg-elem-9"></path><path d="M45.735 78.088c-.268-.458-1.125-1.529-1.76-.761-.634.768 2.256 1.606 1.76.761Z" fill="#B98560" class="svg-elem-10"></path><path d="M50.44 69.67c3.705-1.29 4.326.565 4.326.565-2.165-.662-4.562.751-5.928 1.27-1.173.445-1.231-.864-1.228-1.235.07.116.522.203 2.83-.6Zm-8.108 0c-3.705-1.29-4.327.565-4.327.565 2.165-.662 4.562.751 5.929 1.27 1.176.445 1.234-.864 1.227-1.235-.07.116-.522.203-2.829-.6Z" fill="#151515" class="svg-elem-11"></path><path d="M47.932 80.775c-1.15-.271-1.192.155-1.546.348v2.32h1.894c2.062 0 2.256-2.013 2.256-2.013s-1.483-.384-2.604-.655Z" fill="#A86638" class="svg-elem-12"></path><path d="M44.839 80.775c1.15-.271 1.192.155 1.547.348v2.32H44.49c-2.062 0-2.255-2.013-2.255-2.013s1.466-.384 2.603-.655Z" fill="#B98560" class="svg-elem-13"></path><path d="M54.76 59.678c-.812-.88-5.516-3.374-8.378-3.374v10.873c6.216 0 9.937 1.2 9.937 1.2.004-2.88-.767-7.841-1.56-8.699Z" fill="#31C48D" class="svg-elem-14"></path><path d="M38.011 59.678c.812-.88 5.517-3.374 8.378-3.374v10.873c-6.216 0-9.94 1.2-9.94 1.2-.004-2.88.767-7.841 1.562-8.699Z" fill="#31C48D" opacity=".8" class="svg-elem-15"></path><path d="M46.386 86.645c2.39 0 4.717 3.98 7.046-5.241L56.31 78.5s.02 3.487.02 5.806c0 .435-2.144 2.854-6.79 6.128-.483.338-2.958.18-3.154.18v-3.97Zm0 0c-2.391 0-4.718 3.98-7.047-5.241L36.462 78.5s-.02 3.487-.02 5.806c0 .435 2.146 2.854 6.79 6.128.483.338 2.957.18 3.154.18v-3.97Z" fill="#151515" class="svg-elem-16"></path><path opacity=".9" d="m71.135 96.785-15.19-6.347c-1.156 1.706-4.987 2.964-9.553 2.967v30.554l30.156-10.995c-1.966-14.282-5.413-16.179-5.413-16.179Z" fill="#31C48D" class="svg-elem-17"></path><path opacity=".7" d="M46.36 93.418c-4.563 0-8.397-1.251-9.57-2.954l-15.144 6.331s-3.45 3.841-5.41 18.12l30.156 6.805V93.418h-.032Zm84.426-5.006c-1.064 1.239-6.029 2.258-10.237 4.174-8.7 3.957-8.883 10.669-8.883 24.745l27.024 3.502v-32.42h-7.904Z" fill="#31C48D" class="svg-elem-18"></path><path opacity=".9" d="M146.594 88.412c1.06 1.239 6.025 2.258 10.236 4.174 8.7 3.957 8.884 10.669 8.884 24.745l-27.024 3.502v-32.42h7.904Z" fill="#31C48D" class="svg-elem-19"></path><path opacity=".8" d="M138.69 106.552c-6.583 0-15.808-.984-20.896-12.473 0 0 5.964-6.563 7.704-12.901 1.879-6.831-2.616-20.561 13.192-22.438v47.812Z" fill="#2BA070" class="svg-elem-20"></path><path d="M138.69 106.552c6.582 0 15.807-.984 20.895-12.473 0 0-5.964-6.563-7.704-12.901-1.879-6.831 2.616-20.561-13.191-22.438v47.812Z" fill="#2BA070" class="svg-elem-21"></path><path d="M148.221 76.324c0-6.45-4.357-10.73-9.583-10.73v26.153c4.927.007 9.583-7.43 9.583-15.423Z" fill="#DCAD79" class="svg-elem-22"></path><path d="M129.056 76.324c0-6.45 4.356-10.73 9.582-10.73v26.153c-4.927.007-9.582-7.43-9.582-15.423Z" fill="#E3BD94" class="svg-elem-23"></path><path opacity=".8" d="M138.754 71.728a12.497 12.497 0 0 1 9.579 4.415c-.087-6.35-4.027-10.914-9.579-10.914-5.835 0-9.602 4.606-9.689 10.966a12.797 12.797 0 0 1 9.689-4.467Z" fill="#31C48D" class="svg-elem-24"></path><path d="M135.323 85.874s.563 2.106 3.367 2.106v-1.954l-3.367-.152Z" fill="#A86638" class="svg-elem-25"></path><path d="M137.836 85.055c-.503 0-2.085.82-2.513.82 0 0 .083.383 1.54.26 1.111-.096 1.156.368 1.827.368v-1.116c-.258 0-.352-.332-.854-.332Zm4.224.819s-.567 2.106-3.37 2.106v-1.954l3.37-.152Z" fill="#A86638" class="svg-elem-26"></path><path d="M139.544 85.055c.502 0 2.087.82 2.516.82 0 0-.087.383-1.54.26-1.115-.096-1.157.368-1.83.368v-1.116c.261 0 .351-.332.854-.332Zm2.922-9.792c2.848-.63 3.651.548 3.651.548-1.988-.835-3.902-.087-5.246.271-1.157.323-1.186-.17-1.144-.522.055.119.464.203 2.739-.297Zm-7.656 0c-2.848-.63-3.65.548-3.65.548 1.988-.835 3.902-.087 5.245.271 1.157.323 1.186-.17 1.144-.522-.055.119-.464.203-2.739-.297Z" fill="#A86638" class="svg-elem-27"></path><path d="M45.957 127.845c-23.277 0-42.21-18.955-42.21-42.251 0-23.297 18.94-42.252 42.21-42.252s42.21 18.955 42.21 42.252c0 23.296-18.943 42.251-42.21 42.251Zm0-76.737a34.424 34.424 0 0 0-19.139 5.81A34.474 34.474 0 0 0 14.13 72.392a34.514 34.514 0 0 0-1.963 19.922 34.488 34.488 0 0 0 9.426 17.656 34.419 34.419 0 0 0 37.54 7.479 34.462 34.462 0 0 0 15.461-12.699 34.505 34.505 0 0 0 5.808-19.156 34.528 34.528 0 0 0-10.096-24.375 34.459 34.459 0 0 0-24.349-10.11Zm92.555 76.737c-23.276 0-42.21-18.955-42.21-42.251 0-23.297 18.94-42.252 42.21-42.252 23.271 0 42.21 18.955 42.21 42.252 0 23.296-18.933 42.251-42.21 42.251Zm0-76.737a34.424 34.424 0 0 0-19.138 5.812 34.472 34.472 0 0 0-12.687 15.475 34.51 34.51 0 0 0 7.467 37.578 34.42 34.42 0 0 0 37.541 7.474 34.454 34.454 0 0 0 15.46-12.7 34.505 34.505 0 0 0 5.805-19.157 34.528 34.528 0 0 0-10.099-24.372 34.458 34.458 0 0 0-24.349-10.106v-.004Zm-46.282.732a25.877 25.877 0 0 1-14.386-4.371 25.916 25.916 0 0 1-9.534-11.635 25.945 25.945 0 0 1 5.617-28.247 25.873 25.873 0 0 1 28.22-5.616 25.91 25.91 0 0 1 11.622 9.547 25.942 25.942 0 0 1 4.364 14.4 25.967 25.967 0 0 1-7.596 18.324 25.912 25.912 0 0 1-18.307 7.599Zm0-47.09c-4.18 0-8.266 1.242-11.742 3.566a21.15 21.15 0 0 0-7.784 9.495 21.174 21.174 0 0 0 4.583 23.055 21.116 21.116 0 0 0 23.033 4.584 21.143 21.143 0 0 0 9.484-7.794 21.181 21.181 0 0 0 3.56-11.753 21.183 21.183 0 0 0-6.196-14.952 21.139 21.139 0 0 0-14.938-6.2ZM2.104 191.89v-6.189H0v-.719h4.994v.719H2.91v6.189h-.806Zm3.856 0v-6.908h2.58c.419-.013.836.061 1.224.219.32.136.582.377.744.684.18.372.267.783.252 1.196.012.452-.1.898-.322 1.291-.215.36-.562.623-.967.732l1.318 2.799h-.89l-1.218-2.638H6.747v2.638l-.786-.013Zm.803-3.325H8.54c.284.014.567-.053.815-.193.2-.12.354-.304.435-.523.087-.241.131-.495.129-.751a1.495 1.495 0 0 0-.323-1.065 1.41 1.41 0 0 0-1.05-.348H6.78l-.016 2.88Zm7.811 3.429a2.97 2.97 0 0 1-1.673-.404 2.083 2.083 0 0 1-.83-1.183 8.027 8.027 0 0 1 0-3.871c.127-.493.422-.926.834-1.225a3.475 3.475 0 0 1 3.325 0c.41.301.704.734.834 1.225a6.89 6.89 0 0 1 .239 1.955 7.108 7.108 0 0 1-.232 1.964 2.046 2.046 0 0 1-.832 1.171 3.059 3.059 0 0 1-1.665.368Zm0-.713c.42.027.84-.078 1.198-.3.291-.232.49-.56.558-.926.11-.52.16-1.052.148-1.583a6.455 6.455 0 0 0-.155-1.574 1.727 1.727 0 0 0-.564-.991 2.3 2.3 0 0 0-2.374 0 1.746 1.746 0 0 0-.564.991 6.687 6.687 0 0 0-.155 1.58c-.01.522.04 1.044.148 1.555.072.368.27.7.561.938.353.237.774.35 1.199.323v-.013Zm6.489.713a3.521 3.521 0 0 1-1.289-.223 1.648 1.648 0 0 1-.822-.706 2.542 2.542 0 0 1-.283-1.29v-4.793h.8v4.818a1.387 1.387 0 0 0 .421 1.136c.345.24.763.354 1.183.322a1.93 1.93 0 0 0 1.23-.322 1.382 1.382 0 0 0 .432-1.136v-4.818h.796v4.799c.022.448-.076.893-.283 1.29a1.644 1.644 0 0 1-.832.71 3.689 3.689 0 0 1-1.353.213Zm5.287-.104-1.797-6.908h.828l1.566 6.199h.55l1.57-6.199h.831l-1.791 6.908H26.35Zm4.624 0v-6.908h4.237v.709H31.78v2.339h2.829v.703h-2.83v2.448h3.43v.709h-4.235Zm5.526 0v-6.908h2.578c.418-.013.834.061 1.221.219.319.136.581.378.744.684.18.372.265.783.248 1.196.018.45-.087.896-.302 1.291a1.633 1.633 0 0 1-.967.732l1.318 2.799h-.89l-1.218-2.638H37.3v2.638l-.799-.013Zm.796-3.325h1.782c.283.014.565-.053.812-.193a1.03 1.03 0 0 0 .432-.523c.093-.239.138-.495.132-.751a1.495 1.495 0 0 0-.322-1.065 1.409 1.409 0 0 0-1.057-.355h-1.773l-.006 2.887Zm8.751 3.325-1.798-6.908h.828l1.57 6.199h.547l1.57-6.199h.83l-1.79 6.908h-1.757Zm6.931.104a2.968 2.968 0 0 1-1.669-.404 2.06 2.06 0 0 1-.831-1.183 8.074 8.074 0 0 1 0-3.871c.129-.493.425-.926.837-1.225a2.796 2.796 0 0 1 1.647-.426 2.86 2.86 0 0 1 1.65.419c.41.301.703.734.831 1.226a8.117 8.117 0 0 1 0 3.919 2.009 2.009 0 0 1-.79 1.177 3.083 3.083 0 0 1-1.675.368Zm0-.713c.422.028.842-.077 1.202-.3.29-.233.489-.561.56-.926a7.253 7.253 0 0 0 .149-1.583 6.98 6.98 0 0 0-.158-1.574 1.741 1.741 0 0 0-.56-.991 2.306 2.306 0 0 0-2.379 0 1.767 1.767 0 0 0-.567.991 8.106 8.106 0 0 0 0 3.135c.071.368.268.7.558.938.353.237.774.35 1.198.323l-.003-.013Zm5.417.609v-6.189h-2.111v-.719h4.998v.719h-2.088v6.189h-.8Zm3.843 0v-6.908h2.578c.42-.013.836.061 1.224.219.319.135.58.377.742.684a2.903 2.903 0 0 1-.052 2.474 1.636 1.636 0 0 1-.967.732l1.318 2.799h-.889l-1.224-2.638h-1.934v2.638h-.796Zm.796-3.325h1.779c.284.014.567-.053.815-.193a1.03 1.03 0 0 0 .432-.523c.093-.239.138-.495.132-.751a1.495 1.495 0 0 0-.322-1.065 1.411 1.411 0 0 0-1.05-.348h-1.786v2.88Zm5.368 3.325v-6.908h4.224v.709h-3.425v2.339h2.83v.703H69.2v2.448h3.425v.709h-4.224Zm7.721 0v-6.908h2.529c.43-.016.858.068 1.25.245.319.159.575.42.728.742.172.394.254.821.239 1.251a3.08 3.08 0 0 1-.239 1.274 1.74 1.74 0 0 1-.728.803 2.545 2.545 0 0 1-1.25.274h-1.727v2.31l-.802.009Zm.802-3.019h1.727a1.257 1.257 0 0 0 1.066-.429c.238-.361.351-.79.323-1.222a1.735 1.735 0 0 0-.323-1.171 1.37 1.37 0 0 0-1.066-.374h-1.727v3.196Zm4.098 3.019 1.889-6.908h1.74l1.878 6.908h-.8l-.489-1.748h-2.9l-.49 1.748h-.828Zm1.463-2.457h2.578l-1.021-3.771h-.516l-1.04 3.771Zm5.13 2.457v-6.908h2.578c.418-.013.835.061 1.224.219.319.136.581.378.744.684a2.903 2.903 0 0 1-.055 2.474c-.214.36-.561.623-.966.732l1.318 2.799h-.89l-1.218-2.638h-1.933v2.638h-.802Zm.802-3.325h1.775a1.51 1.51 0 0 0 .816-.193c.2-.12.354-.304.435-.523.087-.241.13-.495.129-.751a1.483 1.483 0 0 0-.323-1.065 1.402 1.402 0 0 0-1.047-.348h-1.766l-.019 2.88Zm6.682 3.325v-6.189H93v-.719h4.991v.719H95.9v6.189h-.8Zm3.858 0v-6.908h4.224v.709h-3.416v2.339h2.823v.703h-2.823v2.448h3.416v.709h-4.224Zm5.522 0v-6.908h1.492l2.597 6.199h.197v-6.199h.802v6.908h-1.459l-2.639-6.199h-.191v6.199h-.799Zm6.155 0 1.888-6.908h1.743l1.882 6.908h-.819l-.486-1.748h-2.92l-.489 1.748h-.799Zm1.456-2.457h2.578l-1.015-3.771h-.516l-1.047 3.771Zm5.107 2.457v-6.908h.796v6.908h-.796Zm2.475 0v-6.908h2.577a3.02 3.02 0 0 1 1.228.219c.318.137.579.378.741.684a2.894 2.894 0 0 1-.055 2.474c-.214.36-.561.623-.966.732l1.318 2.799h-.887l-1.221-2.638h-1.933v2.638h-.802Zm.802-3.325h1.775a1.51 1.51 0 0 0 .816-.193c.199-.121.352-.305.435-.523.09-.24.134-.495.132-.751a1.48 1.48 0 0 0-.323-1.065 1.4 1.4 0 0 0-1.05-.348h-1.775l-.01 2.88Zm5.352 3.325v-6.908h4.227v.709h-3.425v2.339h2.823v.703h-2.823v2.448h3.425v.709h-4.227Zm7.723 0v-6.908h1.447l1.908 5.805 1.933-5.805h1.45v6.908h-.799v-6.057h-.148l-1.979 5.806h-.889l-1.979-5.806h-.148v6.057h-.796Zm10.756.104a3.521 3.521 0 0 1-1.289-.223 1.65 1.65 0 0 1-.822-.706 2.504 2.504 0 0 1-.283-1.29v-4.793h.796v4.818a1.378 1.378 0 0 0 .425 1.136c.345.24.763.354 1.182.322.435.035.869-.079 1.231-.322a1.369 1.369 0 0 0 .429-1.136v-4.818h.802v4.799c.019.448-.08.893-.287 1.29a1.635 1.635 0 0 1-.834.71 3.673 3.673 0 0 1-1.35.213Zm5.974-.01a4.68 4.68 0 0 1-.7-.039c-.267-.035-.531-.051-.792-.087l-.693-.097.077-.645.645.071.76.068c.248.019.461.032.645.032.39.033.779-.082 1.089-.322a1.33 1.33 0 0 0 .361-1.029c.019-.21-.023-.42-.12-.607a.987.987 0 0 0-.48-.361 5.033 5.033 0 0 0-.896-.245 6.454 6.454 0 0 1-1.192-.355 1.516 1.516 0 0 1-.709-.583 2.298 2.298 0 0 1 .039-2.113c.191-.276.464-.486.78-.6a3.368 3.368 0 0 1 1.173-.187c.229-.004.458.007.686.032.258.032.506.052.757.084.252.032.464.058.645.09l-.075.662a16.93 16.93 0 0 0-.644-.071l-.731-.068a7.17 7.17 0 0 0-.558-.029 1.858 1.858 0 0 0-1.102.271.97.97 0 0 0-.377.838c-.01.227.048.451.165.645.135.175.322.301.534.362.318.106.641.196.967.271.302.068.6.154.893.258.225.078.435.196.618.348.164.134.288.308.361.506.084.244.123.501.116.758.019.427-.074.85-.27 1.229a1.59 1.59 0 0 1-.771.684c-.38.159-.789.237-1.201.229Zm5.893.01a3.521 3.521 0 0 1-1.289-.223 1.643 1.643 0 0 1-.825-.706 2.579 2.579 0 0 1-.283-1.29v-4.793h.799v4.818a1.368 1.368 0 0 0 .425 1.136c.345.241.763.355 1.183.322a1.93 1.93 0 0 0 1.23-.322c.153-.145.271-.322.346-.518.074-.197.102-.408.083-.618v-4.818h.799v4.799c.02.447-.078.892-.284 1.29a1.642 1.642 0 0 1-.837.71 3.658 3.658 0 0 1-1.347.213Zm4.076-.104v-6.908h.799v6.189h3.035v.719h-3.834Zm4.775 0v-6.908h1.44l1.895 5.805 1.933-5.805h1.447v6.908h-.796v-6.057h-.151l-1.979 5.806h-.889l-1.978-5.806h-.149v6.057h-.773Zm7.791 0 1.888-6.908h1.727l1.879 6.908h-.799l-.49-1.748h-2.9l-.49 1.748h-.815Zm1.46-2.457h2.577l-1.027-3.771h-.535l-1.015 3.771Zm5.104 2.457v-6.908h1.488l2.597 6.199h.2v-6.199h.799v6.908h-1.456l-2.639-6.199h-.19v6.199h-.799Z" fill="#fff" class="svg-elem-28"></path><path d="M97.437 27.828s-2.127 6.986-3.132 9.305c-1.005 2.32.967 1.99 1.86 3.59.892 1.6 2.748 1.935 3.795.848 1.047-1.087 2.275 0 3.022-1.229.748-1.229-3.187-19.184-4.082-21.4-.896-2.215-1.727-4.463-2.462-3.441-.735 1.022.999 12.327.999 12.327Z" fill="#E6E6E6" class="svg-elem-29"></path><path d="M92.907 28.757a3.128 3.128 0 0 0 1.746-.258c1.115-.587 3.866-2.148 3.866-3.377v-11.32l-5.619-.51.007 15.465Z" fill="#DCAD79" class="svg-elem-30"></path><path d="M98.078 18.497s.967-1.245 1.514-.229c.429.8.049 2.79-.467 4.006-.283.661-1.102.523-1.102.523l.055-4.3Z" fill="#DCAD79" class="svg-elem-31"></path><path d="M87.735 18.497s-.967-1.245-1.514-.229c-.429.8-.049 2.79.47 4.006.28.661 1.099.523 1.099.523l-.055-4.3Z" fill="#E3BD94" class="svg-elem-32"></path><path d="M92.907 28.757a3.116 3.116 0 0 1-1.744-.258c-1.118-.587-3.866-2.148-3.866-3.377V13.53l5.62-.68-.01 15.907Z" fill="#E3BD94" class="svg-elem-33"></path><path d="M93.274 22.658c.151-.261.644-.864.995-.43.352.436-1.269.907-.995.43Z" fill="#A86638" class="svg-elem-34"></path><path d="M92.54 22.658c-.152-.261-.645-.864-.996-.43-.352.436 1.276.907.995.43Z" fill="#B98560" class="svg-elem-35"></path><path d="M95.198 17.852c2.097-.732 2.448.323 2.448.323-1.224-.371-2.577.425-3.35.719-.668.252-.7-.487-.697-.697.045.071.297.113 1.599-.345Zm-4.582 0c-2.095-.732-2.446.323-2.446.323 1.224-.371 2.578.425 3.351.719.664.252.696-.487.693-.697-.039.071-.293.113-1.598-.345Z" fill="#151515" class="svg-elem-36"></path><path d="M93.767 24.483c-.645-.154-.677.087-.877.197v1.329h1.073a1.269 1.269 0 0 0 1.29-1.139s-.845-.232-1.486-.387Z" fill="#A86638" class="svg-elem-37"></path><path d="M92.033 24.483c.645-.154.674.087.874.197v1.329h-1.07a1.288 1.288 0 0 1-1.289-1.139s.84-.232 1.485-.387Z" fill="#B98560" class="svg-elem-38"></path><path d="M92.894 26.47s-5.14 1.864-5.14-10.56h-.499s-.016 9.141-.016 11.55c0 0 .802 5.306 5.655 5.306V26.47Zm0 0s5.136 1.864 5.136-10.56h.5s.015 9.141.015 11.55c0 0-.802 5.306-5.651 5.306V26.47Z" fill="#151515" class="svg-elem-39"></path><path d="M99.444 12.737c-2.02-2.984-4.72-3.584-6.56-3.584-1.84 0-4.546.6-6.567 3.584-.966 1.432.149 4.747.925 5.309 0 0 .754-1.761 5.639-1.761s5.642 1.79 5.642 1.79c.786-.558 1.904-3.906.921-5.338Z" fill="#E6E6E6" class="svg-elem-40"></path><path d="M86.952 14.198s1.846-2.758 5.955-2.758c4.108 0 5.116.761 5.116.761s-3.357-.177-5.116.126c-3.9.671-5.955 1.87-5.955 1.87Zm4.238-.268a9.593 9.593 0 0 1 6.247-.251l-6.248.251Z" fill="#CCC" class="svg-elem-41"></path><path d="M90.19 26.931s-.322-2.196.226-2.58c.548-.384 2.49-.103 2.49-.103v-.645s-1.466-.968-2.542-.413c-1.61.822-1.205 3.619-1.205 3.619l1.031.122Z" fill="#151515" class="svg-elem-42"></path><path d="M95.578 26.783s.322-2.048-.223-2.445c-.544-.396-2.493-.103-2.493-.103l.016-.645s1.466-.968 2.545-.413c1.611.823 1.205 3.619 1.205 3.619l-1.05-.013Z" fill="#151515" class="svg-elem-43"></path><path d="M1.125 175.019v-36.814h8.86l9.444 29.17 9.396-29.17h8.912v36.814h-5.123v-30.938h-.747l-9.754 29.706h-5.351L7.05 144.081h-.802v30.938H1.125Zm50.487.532c-2.526 0-4.447-.695-5.761-2.084-1.315-1.389-1.973-3.437-1.975-6.144 0-1.817.322-3.287.966-4.409a6.043 6.043 0 0 1 2.855-2.538 13.395 13.395 0 0 1 4.704-1.013l7.733-.748v-2.084c0-1.673-.373-2.855-1.12-3.548-.748-.692-1.87-1.039-3.365-1.041-.926 0-2.01.035-3.254.106-1.244.071-2.472.16-3.683.268-1.212.106-2.294.216-3.254.322l-.216-3.635c.89-.213 1.95-.406 3.177-.587 1.227-.18 2.516-.322 3.866-.48a35.843 35.843 0 0 1 3.735-.213c2.1 0 3.826.302 5.178.906a5.97 5.97 0 0 1 2.99 2.832c.644 1.29.966 2.947.966 4.97v13.14a2.005 2.005 0 0 0 .88 1.577 4.646 4.646 0 0 0 1.95.668l-.162 3.687c-.784 0-1.522-.027-2.213-.081a8.559 8.559 0 0 1-1.898-.345 5.572 5.572 0 0 1-1.52-.616 7.907 7.907 0 0 1-1.254-.936 23.49 23.49 0 0 1-2.507.91c-1.086.332-2.191.6-3.31.8-1.157.21-2.331.315-3.508.316Zm1.015-3.954a14.913 14.913 0 0 0 2.748-.268 34.393 34.393 0 0 0 2.697-.613 37.284 37.284 0 0 0 2.082-.616v-8.015l-7.089.697c-1.504.107-2.571.526-3.203 1.255-.631.728-.954 1.77-.966 3.125 0 1.391.311 2.477.934 3.257.623.781 1.555 1.173 2.797 1.178Zm29.418 3.954-4.86-1.335 12.706-28.422v-1.39H72.96v-4.648h22.15v6.196l-13.066 29.599Zm20.376-.532v-26.77h4.966v3.473a21.88 21.88 0 0 1 2.455-1.496 33.744 33.744 0 0 1 3.28-1.523 18.4 18.4 0 0 1 3.544-1.041v4.97a27.44 27.44 0 0 0-3.496.906 37.643 37.643 0 0 0-3.309 1.258 30.633 30.633 0 0 0-2.481 1.2v19.029l-4.959-.006Zm24.766.532c-2.526 0-4.448-.695-5.765-2.084-1.316-1.389-1.975-3.437-1.975-6.144 0-1.817.322-3.287.967-4.409a6.04 6.04 0 0 1 2.855-2.538c1.5-.621 3.1-.964 4.723-1.013l7.733-.748v-2.084c0-1.673-.373-2.855-1.121-3.548-.748-.692-1.868-1.039-3.361-1.041-.928 0-2.01.035-3.257.106a118.01 118.01 0 0 0-3.683.268c-1.212.106-2.294.216-3.254.322l-.213-3.635a36.164 36.164 0 0 1 3.174-.587c1.24-.18 2.516-.322 3.866-.48a35.916 35.916 0 0 1 3.738-.213c2.096 0 3.821.302 5.175.906a5.958 5.958 0 0 1 2.99 2.832c.644 1.29.966 2.947.966 4.97v13.14a2.014 2.014 0 0 0 .877 1.577 4.647 4.647 0 0 0 1.949.668l-.161 3.687c-.784 0-1.522-.027-2.214-.081a8.414 8.414 0 0 1-1.894-.345 5.499 5.499 0 0 1-1.521-.616 7.802 7.802 0 0 1-1.257-.936c-.817.351-1.654.655-2.506.91-1.09.331-2.198.596-3.319.793a19.61 19.61 0 0 1-3.512.323Zm1.015-3.954a14.914 14.914 0 0 0 2.748-.268 34.532 34.532 0 0 0 2.694-.613 37.249 37.249 0 0 0 2.081-.616v-8.015l-7.088.697c-1.504.107-2.572.526-3.203 1.255-.632.728-.954 1.77-.967 3.125 0 1.391.312 2.477.935 3.257.623.781 1.556 1.173 2.8 1.178Zm19.957 3.422v-26.77h4.966v1.87a21.579 21.579 0 0 1 3.389-1.574 11.616 11.616 0 0 1 4.189-.829c1.742 0 3.147.215 4.215.645a5.723 5.723 0 0 1 2.616 2.084 22.193 22.193 0 0 1 2.536-1.229 21.597 21.597 0 0 1 3.28-1.071 14.708 14.708 0 0 1 3.47-.425c2.455 0 4.35.43 5.684 1.29 1.334.86 2.25 2.257 2.748 4.193.501 1.935.75 4.508.748 7.718v14.098h-4.911V161.23a29.803 29.803 0 0 0-.373-5.286c-.247-1.32-.736-2.288-1.466-2.903-.731-.615-1.842-.917-3.335-.906a12.938 12.938 0 0 0-3.867.587 16.549 16.549 0 0 0-2.964 1.174c.285 1.075.456 2.176.509 3.287.086 1.335.13 2.697.132 4.086v13.75h-4.962v-13.627a33.23 33.23 0 0 0-.348-5.422c-.232-1.335-.721-2.303-1.466-2.903-.745-.6-1.848-.902-3.309-.906a12.09 12.09 0 0 0-3.712.587c-.975.283-1.914.677-2.8 1.174v21.097h-4.969Z" fill="#fff" class="svg-elem-44"></path></g><defs><clipPath id="a"><path fill="#fff" d="M0 0h186v192H0z" class="svg-elem-45"></path></clipPath></defs></svg>