<svg width="118" height="139" viewBox="0 0 118 139" fill="none" xmlns="http://www.w3.org/2000/svg"><path d="m107.207 80.683-31.168-11.7c-3.507 2.808-10.019 5.104-17.21 5.104v64.303l58.908-19.833c-3.795-27.89-10.53-37.874-10.53-37.874Z" fill="#31C48D" opacity=".9"/><path d="m10.53 80.683 31.169-11.7c3.495 2.808 10.018 5.104 17.198 5.104v64.303L0 118.557c3.796-27.89 10.53-37.874 10.53-37.874Z" fill="#31C48D" opacity=".7"/><path d="M74.514 64.515s-7.346 24.135-10.82 32.147c-3.473 8.011 3.34 6.874 6.423 12.401 3.084 5.527 9.495 6.686 13.113 2.931 3.618-3.755 7.859 0 10.441-4.246 2.583-4.245-11.009-66.276-14.103-73.93-3.095-7.655-5.966-15.422-8.504-11.89-2.538 3.533 3.45 42.587 3.45 42.587Z" fill="#E6E6E6"/><path d="M58.864 67.724a10.81 10.81 0 0 0 6.033-.891c3.852-2.028 13.358-7.421 13.358-11.666v-39.11l-19.413-1.761.022 53.428Z" fill="#DCAD79"/><path d="M76.729 32.28s3.34-4.301 5.232-.791c1.48 2.763.167 9.638-1.614 13.839-.98 2.284-3.807 1.805-3.807 1.805l.189-14.853Z" fill="#DCAD79"/><path d="M40.997 32.28s-3.34-4.301-5.232-.791c-1.48 2.763-.167 9.638 1.626 13.839.968 2.284 3.795 1.805 3.795 1.805l-.189-14.853Z" fill="#E3BD94"/><path d="M58.863 67.724a10.766 10.766 0 0 1-6.022-.891c-3.863-2.028-13.358-7.421-13.358-11.666V15.12l19.413-2.35-.033 54.954Z" fill="#E3BD94"/><path d="M60.132 46.654c.523-.903 2.226-2.986 3.44-1.482 1.213 1.504-4.386 3.131-3.44 1.482Z" fill="#A86638"/><path d="M57.594 46.654c-.523-.903-2.226-2.986-3.44-1.482-1.213 1.504 4.409 3.131 3.44 1.482Z" fill="#B98560"/><path d="M66.778 30.052c7.247-2.53 8.46 1.114 8.46 1.114-4.23-1.282-8.905 1.47-11.577 2.485-2.304.869-2.415-1.683-2.404-2.407.156.245 1.024.39 5.521-1.192Zm-15.83 0c-7.235-2.53-8.449 1.114-8.449 1.114 4.23-1.282 8.906 1.47 11.577 2.485 2.293.869 2.405-1.683 2.393-2.407-.133.245-1.013.39-5.52-1.192Z" fill="#151515"/><path d="M61.835 52.96c-2.226-.534-2.337.301-3.028.68v4.591h3.707a4.383 4.383 0 0 0 4.453-3.933s-2.917-.803-5.132-1.337Z" fill="#A86638"/><path d="M55.846 52.96c2.227-.534 2.327.301 3.017.68v4.591h-3.696a4.45 4.45 0 0 1-4.452-3.933s2.905-.803 5.131-1.337Z" fill="#B98560"/><path d="M58.819 59.824s-17.755 6.44-17.755-36.48h-1.726s-.055 31.578-.055 39.901c0 0 2.771 18.33 19.535 18.33v-21.75Z" fill="#151515"/><path d="M58.818 59.824s17.744 6.44 17.744-36.48h1.725s.056 31.578.056 39.901c0 0-2.772 18.33-19.525 18.33v-21.75Z" fill="#151515"/><path d="M81.449 12.38C74.469 2.072 65.14 0 58.785 0S43.08 2.073 36.1 12.38c-3.34 4.947.512 16.401 3.195 18.34 0 0 2.605-6.084 19.48-6.084s19.491 6.184 19.491 6.184c2.716-1.927 6.579-13.493 3.184-18.44Z" fill="#E6E6E6"/><path d="M38.292 17.427S44.67 7.9 58.862 7.9c14.194 0 17.678 2.63 17.678 2.63s-11.6-.613-17.677.434c-13.47 2.318-20.571 6.463-20.571 6.463Zm14.638-.925a33.14 33.14 0 0 1 21.584-.869l-21.584.87Z" fill="#CCC"/><path d="M49.48 61.418s-1.114-7.588.779-8.914c1.892-1.326 8.604-.357 8.604-.357V49.92s-5.065-3.343-8.782-1.427c-5.566 2.842-4.164 12.502-4.164 12.502l3.562.424Z" fill="#151515"/><path d="M68.091 60.905s1.113-7.075-.768-8.446c-1.881-1.37-8.616-.357-8.616-.357l.056-2.228s5.065-3.343 8.794-1.426c5.566 2.841 4.163 12.502 4.163 12.502l-3.629-.045Z" fill="#151515"/></svg>