<svg width="121" height="121" viewBox="0 0 121 121" fill="none" xmlns="http://www.w3.org/2000/svg"><path d="m60.766 56.797 11.225-.473 2.9 12.671-14.125 33.755V56.797Z" fill="#DCAD79"/><path d="m60.766 56.797-11.216-.473-2.82 12.671 14.036 33.06V56.797Z" fill="#E3BD94"/><path d="M60.803 66.75s2.421.391 4.402-.653c2.816-1.48 9.768-5.418 9.768-8.517V35.7l-14.17-7.961V66.75Z" fill="#DCAD79"/><path d="M73.848 38.68s1.737-1.88 3.216-.643c1.02.86.313 8.485-1.24 10.877-.538.819-2.1.612-2.1.612l.124-10.846Z" fill="#DCAD79"/><path d="M47.758 38.68s-1.732-1.88-3.216-.643c-1.015.86-.312 8.485 1.245 10.877.533.819 2.1.612 2.1.612l-.129-10.846Z" fill="#E3BD94"/><path d="M60.803 66.75s-2.421.391-4.402-.653c-2.816-1.48-9.773-5.418-9.773-8.517V35.7l14.175-9.074V66.75Z" fill="#E3BD94"/><path d="M61.731 49.549c.382-.653 1.604-2.18 2.509-1.086.905 1.095-3.216 2.29-2.509 1.086Z" fill="#A86638"/><path d="M59.875 49.549c-.382-.653-1.604-2.18-2.509-1.086-.905 1.095 3.216 2.29 2.509 1.086Z" fill="#B98560"/><path d="M66.583 37.544c5.284-1.84 6.171.805 6.171.805-3.088-.942-6.506 1.072-8.454 1.813-1.673.634-1.755-1.233-1.75-1.762.1.166.744.29 4.033-.855Zm-11.56 0c-5.284-1.84-6.171.805-6.171.805 3.088-.942 6.506 1.072 8.454 1.813 1.678.634 1.76-1.233 1.751-1.762-.101.166-.744.29-4.034-.855Z" fill="#151515"/><path d="M63.008 53.38c-1.64-.386-1.7.22-2.205.497v3.307h2.702c2.94 0 3.216-2.87 3.216-2.87s-2.114-.547-3.713-.934Z" fill="#A86638"/><path d="M58.597 53.38c1.64-.386 1.7.22 2.206.497v3.307h-2.702c-2.94 0-3.216-2.87-3.216-2.87s2.09-.547 3.712-.934Z" fill="#B98560"/><path d="M72.745 23.296c-1.158-1.256-7.866-4.811-11.947-4.811v15.504c8.864 0 14.17 1.711 14.17 1.711.005-4.107-1.093-11.18-2.223-12.404Z" fill="#31C48D"/><path d="M48.861 23.296c1.158-1.256 7.867-4.811 11.947-4.811v15.504c-8.864 0-14.175 1.711-14.175 1.711-.005-4.107 1.093-11.18 2.228-12.404Z" fill="#31C48D" opacity=".8"/><path d="M60.803 61.751c3.41 0 6.727 5.676 10.049-7.474l4.103-4.14s.028 4.973.028 8.28c0 .62-3.056 4.07-9.682 8.738-.689.483-4.218.258-4.498.258V61.75Zm0 0c-3.41 0-6.727 5.676-10.049-7.474l-4.103-4.14s-.028 4.973-.028 8.28c0 .62 3.06 4.07 9.682 8.738.689.483 4.218.258 4.498.258V61.75Z" fill="#151515"/><path opacity=".9" d="m96.096 76.212-21.66-9.052c-1.65 2.433-7.113 4.227-13.624 4.231v43.57l43.003-15.68c-2.803-20.365-7.72-23.07-7.72-23.07Z" fill="#31C48D"/><path opacity=".7" d="M60.766 71.41c-6.506 0-11.974-1.785-13.646-4.213l-21.596 9.028s-4.92 5.478-7.715 25.84l43.003 9.704v-40.36h-.046Z" fill="#31C48D"/><path d="M60.192 120.503C26.999 120.503 0 93.473 0 60.252S27.008 0 60.192 0s60.192 27.03 60.192 60.252c0 33.22-27.013 60.251-60.192 60.251Zm0-109.428A49.089 49.089 0 0 0 32.9 19.36a49.161 49.161 0 0 0-18.095 22.066 49.217 49.217 0 0 0-2.798 28.41A49.187 49.187 0 0 0 25.45 95.012a49.106 49.106 0 0 0 25.15 13.46 49.078 49.078 0 0 0 28.383-2.795 49.135 49.135 0 0 0 22.047-18.109 49.21 49.21 0 0 0 8.281-27.317 49.234 49.234 0 0 0-14.396-34.76 49.14 49.14 0 0 0-34.722-14.417Z" fill="#31C48D"/></svg>