<svg width="182" height="38" viewBox="0 0 182 38" fill="none" xmlns="http://www.w3.org/2000/svg"><path d="m30.544 9.663-2.682-1.006c-.302.241-.862.439-1.48.439v5.532l5.067-1.706c-.326-2.4-.905-3.259-.905-3.259Z" fill="#31C48D" opacity=".9"/><path d="m22.226 9.663 2.681-1.006c.301.241.862.439 1.48.439v5.532l-5.067-1.706c.326-2.4.906-3.259.906-3.259Z" fill="#31C48D" opacity=".7"/><path d="m12.486 24.528 2.588-.1.669 2.668-3.257 7.104v-9.672Z" fill="#DCAD79"/><path d="m12.486 24.53-2.17-.101-.545 2.707 2.715 7.064v-9.67Z" fill="#E3BD94"/><path d="M12.486 26.585s.556.081 1.011-.136c.648-.309 2.246-1.129 2.246-1.775v-4.558l-3.257-1.659v8.128Z" fill="#DCAD79"/><path d="M15.235 20.87s.494-.427.915-.146c.29.196.089 1.93-.353 2.474-.153.186-.597.14-.597.14l.035-2.467Z" fill="#DCAD79"/><path d="M9.753 20.87s-.246-.427-.457-.146c-.144.196-.044 1.93.177 2.474.076.186.298.14.298.14l-.018-2.467Zm2.733 5.715s-.464.08-.843-.132c-.54-.3-1.872-1.098-1.872-1.726v-4.432l2.715-1.838v8.128Z" fill="#E3BD94"/><path d="M12.518 23.204c.153-.18.64-.6 1.001-.299.361.302-1.283.63-1 .299Z" fill="#A86638"/><path d="M12.47 23.204c-.077-.18-.32-.6-.501-.299-.18.302.642.63.5.299Z" fill="#B98560"/><path d="M13.887 20.732c1.124-.293 1.313.129 1.313.129-.657-.15-1.384.171-1.799.29-.356.1-.373-.197-.372-.282.021.026.158.046.858-.137Zm-2.588 0c-.843-.293-.985.129-.985.129.493-.15 1.038.171 1.35.29.267.1.28-.197.279-.282-.016.026-.119.046-.644-.137Z" fill="#151515"/><path d="M12.89 23.92c-.3-.107-.312.061-.404.138v.913h.495c.54 0 .59-.793.59-.793s-.387-.15-.68-.258Z" fill="#A86638"/><path d="M12.081 23.92c.301-.107.312.061.405.138v.913h-.496c-.54 0-.59-.793-.59-.793s.383-.15.681-.258Z" fill="#B98560"/><path d="M15.232 17.739c-.266-.238-1.808-.91-2.746-.91v2.933c2.037 0 3.257.324 3.257.324 0-.777-.252-2.116-.511-2.347Z" fill="#31C48D"/><path d="M10.068 17.739c.241-.262 1.64-1.003 2.49-1.003v3.232c-1.848 0-2.955.356-2.955.356 0-.856.228-2.33.465-2.585Z" fill="#31C48D" opacity=".8"/><path d="M12.486 25.89c.783 0 1.545 1.244 2.308-1.64l.942-.907s.007 1.09.007 1.815c0 .136-.702.893-2.224 1.917-.158.106-.969.056-1.033.056V25.89Zm0 0c-.653 0-1.288 1.244-1.924-1.64l-.785-.907s-.006 1.09-.006 1.815c0 .136.586.893 1.854 1.917.132.106.807.056.86.056V25.89Z" fill="#151515"/><path opacity=".9" d="m20.058 28.993-4.649-1.85c-.354.497-1.526.864-2.923.865v8.906l9.228-3.205c-.601-4.163-1.656-4.716-1.656-4.716Z" fill="#31C48D"/><path opacity=".7" d="M12.476 28.015c-1.314 0-2.418-.37-2.756-.872l-4.362 1.87s-.994 1.134-1.558 5.35l8.686 2.009v-8.357h-.01Zm25.314-1.958c-.32.373-1.817.68-3.085 1.258-2.621 1.193-2.676 3.216-2.676 7.458l8.142 1.056v-9.772H37.79Z" fill="#31C48D"/><path opacity=".9" d="M42.394 26.057c.298.373 1.695.68 2.88 1.258 2.446 1.193 2.497 3.216 2.497 7.458l-7.6 1.056v-9.772h2.223Z" fill="#31C48D"/><path opacity=".8" d="M40.171 31.486c-2.052 0-4.928-.29-6.514-3.682 0 0 1.86-1.938 2.402-3.808.586-2.017-.816-6.07 4.112-6.624v14.114Z" fill="#2BA070"/><path d="M40.171 31.486c1.882 0 4.518-.29 5.972-3.682 0 0-1.705-1.938-2.202-3.808-.537-2.017.748-6.07-3.77-6.624v14.114Z" fill="#2BA070"/><path d="M42.886 22.661c0-1.874-1.234-3.118-2.715-3.118v7.6c1.396.002 2.715-2.16 2.715-4.482Z" fill="#DCAD79"/><path d="M36.914 22.661c0-1.874 1.481-3.118 3.257-3.118v7.6c-1.674.002-3.257-2.16-3.257-4.482Z" fill="#E3BD94"/><path opacity=".8" d="M39.917 21.473a4.017 4.017 0 0 1 1.635.341c.513.227.968.558 1.334.97-.027-1.886-1.248-3.241-2.969-3.241-1.808 0-2.976 1.368-3.003 3.257a3.954 3.954 0 0 1 1.35-.978 4.105 4.105 0 0 1 1.653-.349Z" fill="#31C48D"/><path d="M39.086 25.514s.181.543 1.085.543v-.504l-1.085-.039Zm2.171 0s-.182.543-1.086.543v-.504l1.086-.039Zm-.153-3.166c.967-.308 1.239.268 1.239.268-.675-.409-1.324-.042-1.78.133-.392.158-.402-.084-.388-.256.019.059.157.1.93-.145Zm-2.175 0c-.725-.308-.929.268-.929.268.506-.409.993-.042 1.335.133.294.158.302-.084.29-.256-.013.059-.117.1-.696-.145Z" fill="#A86638"/><path d="M12.486 38C5.6 38 0 32.4 0 25.515s5.602-12.486 12.486-12.486c6.883 0 12.485 5.601 12.485 12.486C24.971 32.398 19.368 38 12.486 38Zm0-22.676a10.19 10.19 0 1 0 10.188 10.19 10.198 10.198 0 0 0-10.188-10.19ZM39.9 38c-7.035 0-12.757-5.601-12.757-12.485 0-6.885 5.724-12.486 12.757-12.486 7.033 0 12.757 5.601 12.757 12.486C52.657 32.398 46.935 38 39.9 38Zm0-22.676c-2.06 0-4.072.598-5.784 1.717a10.24 10.24 0 0 0-3.835 4.573 9.988 9.988 0 0 0-.592 5.887 10.125 10.125 0 0 0 2.85 5.218 10.484 10.484 0 0 0 5.33 2.788c2.02.394 4.113.192 6.015-.58a10.366 10.366 0 0 0 4.673-3.752 10.036 10.036 0 0 0 1.754-5.661 10.09 10.09 0 0 0-3.052-7.203 10.536 10.536 0 0 0-7.359-2.986v-.001ZM26.055 15.2a7.6 7.6 0 1 1 7.602-7.6 7.608 7.608 0 0 1-7.602 7.6Zm0-13.806a6.202 6.202 0 1 0 0 12.405 6.202 6.202 0 0 0 0-12.405Z" fill="#31C48D"/><path d="M69.23 36.372V32.48h-1.373v-.452h3.257v.452h-1.36v3.89h-.525Zm2.427-.008V32.03h1.45c.235-.008.47.038.688.137a.89.89 0 0 1 .419.43c.101.233.15.49.141.75a1.7 1.7 0 0 1-.181.81.924.924 0 0 1-.544.459l.741 1.756h-.5l-.685-1.655H72.1v1.655l-.442-.008Zm.451-2.086h.999a.776.776 0 0 0 .458-.122c.113-.075.2-.19.245-.328.049-.15.073-.31.072-.471.019-.24-.046-.48-.181-.668a.778.778 0 0 0-.275-.176.717.717 0 0 0-.316-.042h-.993l-.009 1.807Zm4.438 2.09a1.735 1.735 0 0 1-.996-.247 1.274 1.274 0 0 1-.495-.722 5.021 5.021 0 0 1 0-2.363c.076-.301.252-.566.497-.749a2.03 2.03 0 0 1 1.98 0c.243.184.419.448.496.749.103.388.151.79.142 1.193.01.404-.037.808-.138 1.2a1.248 1.248 0 0 1-.495.714 1.78 1.78 0 0 1-.991.225Zm0-.436c.25.017.5-.047.713-.183a.948.948 0 0 0 .332-.565c.066-.318.096-.642.088-.967a4.04 4.04 0 0 0-.092-.96 1.06 1.06 0 0 0-.335-.605 1.34 1.34 0 0 0-1.414 0 1.07 1.07 0 0 0-.336.604c-.068.317-.099.64-.092.965-.006.319.023.637.088.95a.99.99 0 0 0 .334.572c.21.145.461.214.714.197v-.008Zm4.048.438a1.78 1.78 0 0 1-.72-.137.95.95 0 0 1-.457-.438 1.718 1.718 0 0 1-.158-.799V32.03h.445v2.983c-.011.13.004.26.045.382a.87.87 0 0 0 .19.322.955.955 0 0 0 .66.2.998.998 0 0 0 .686-.2.863.863 0 0 0 .194-.32.94.94 0 0 0 .047-.383V32.03h.444V35c.012.278-.043.553-.158.8a.95.95 0 0 1-.464.439c-.242.096-.498.14-.754.132Zm3.559.002-1.096-4.343h.505l.954 3.897h.336l.956-3.897h.506l-1.091 4.343h-1.07Zm2.704 0v-4.343h2.714v.446h-2.198v1.47h1.812v.442h-1.812v1.539h2.196v.446h-2.712Zm3.257-.008V32.03h1.735c.281-.008.561.038.822.137a1 1 0 0 1 .5.43c.122.233.18.49.168.75.012.282-.059.562-.204.81a1.09 1.09 0 0 1-.65.459l.886 1.756h-.598l-.82-1.655h-1.3v1.655l-.539-.008Zm.536-2.086h1.2c.19.008.38-.034.546-.122a.656.656 0 0 0 .29-.328c.063-.15.093-.31.09-.471a.894.894 0 0 0-.218-.668.968.968 0 0 0-.33-.18 1.015 1.015 0 0 0-.381-.042h-1.193l-.004 1.81Zm5.446 2.094L95 32.029h.505l.956 3.897h.334l.956-3.897h.506l-1.092 4.343h-1.07Zm4.342-.005c-.35.02-.697-.065-1-.245a1.257 1.257 0 0 1-.497-.722 5.014 5.014 0 0 1 0-2.361c.077-.301.254-.565.501-.748a1.65 1.65 0 0 1 .986-.26c.347-.018.692.07.988.256.245.184.421.448.497.748a5.032 5.032 0 0 1 0 2.39c-.066.29-.234.545-.472.718-.307.17-.655.248-1.003.224Zm0-.434c.252.017.504-.047.719-.183a.963.963 0 0 0 .336-.565c.064-.318.094-.642.089-.966a4.36 4.36 0 0 0-.095-.96 1.064 1.064 0 0 0-.335-.604 1.358 1.358 0 0 0-1.424 0c-.176.157-.295.37-.34.604a5.033 5.033 0 0 0 0 1.912.993.993 0 0 0 .334.573c.212.144.464.213.718.197l-.002-.008Zm3.308.439V32.48H102.6v-.452h2.714v.452h-1.134v3.89h-.434Zm2.111 0V32.03h1.734c.282-.008.562.038.823.138a.983.983 0 0 1 .499.43 1.723 1.723 0 0 1-.035 1.554c-.146.226-.378.39-.65.46l.886 1.76h-.598l-.823-1.658h-1.301v1.658h-.535Zm.535-2.09h1.197a1.07 1.07 0 0 0 .548-.122.654.654 0 0 0 .29-.328c.063-.15.093-.311.089-.473a.894.894 0 0 0-.217-.669.952.952 0 0 0-.329-.176 1.01 1.01 0 0 0-.377-.042h-1.201v1.81Zm3.265 2.09v-4.343h2.714v.446h-2.2v1.47h1.817v.442h-1.817v1.539h2.2v.446h-2.714Zm4.886 0V32.03h1.446c.246-.01.49.043.715.154.182.1.328.264.416.466.098.248.145.517.136.787.007.274-.04.547-.136.8-.087.213-.232.39-.416.505a1.351 1.351 0 0 1-.715.172h-.987v1.452l-.459.006Zm.459-1.898h.987a.66.66 0 0 0 .334-.054.729.729 0 0 0 .276-.215c.135-.227.2-.497.184-.768a1.172 1.172 0 0 0-.184-.736.78.78 0 0 0-.282-.19.717.717 0 0 0-.328-.045h-.987v2.008Zm2.255 1.898 1.303-4.343h1.201l1.296 4.343h-.551l-.338-1.1h-2.001l-.338 1.1h-.572Zm1.01-1.545h1.778l-.704-2.37h-.356l-.718 2.37Zm3.333 1.545V32.03h1.445c.235-.008.468.038.686.138a.895.895 0 0 1 .417.43 2.03 2.03 0 0 1-.031 1.554.92.92 0 0 1-.541.46l.738 1.76h-.498l-.683-1.658h-1.083v1.658h-.45Zm.45-2.09h.995a.772.772 0 0 0 .457-.122.628.628 0 0 0 .243-.328c.049-.151.074-.312.073-.473.019-.24-.046-.48-.181-.669a.762.762 0 0 0-.273-.177.705.705 0 0 0-.314-.041h-.989l-.011 1.81Zm4.178 2.09V32.48h-1.371v-.452h3.257v.452h-1.364v3.89h-.522Zm2.429 0v-4.343h2.714v.446h-2.194v1.47h1.813v.442h-1.813v1.539h2.194v.446h-2.714Zm3.257 0v-4.343h.955l1.663 3.897h.126v-3.897h.513v4.343h-.934l-1.689-3.897h-.122v3.897h-.512Zm3.8 0 1.116-4.343h1.03l1.111 4.343h-.483l-.288-1.1h-1.724l-.29 1.1h-.472Zm.861-1.545h1.523l-.6-2.37h-.305l-.618 2.37Zm2.939 1.545v-4.343h.543v4.343h-.543Zm1.629 0V32.03h1.734c.282-.008.563.038.825.138a.99.99 0 0 1 .499.43 1.724 1.724 0 0 1-.037 1.554 1.082 1.082 0 0 1-.65.46l.886 1.76h-.596l-.821-1.658h-1.301v1.658h-.539Zm.539-2.09h1.195a1.07 1.07 0 0 0 .548-.122.663.663 0 0 0 .292-.328 1.22 1.22 0 0 0 .089-.473.889.889 0 0 0-.216-.669 1.005 1.005 0 0 0-.707-.219h-1.194l-.007 1.81Zm3.261 2.09v-4.343h2.714v.446h-2.199v1.47h1.812v.442h-1.812v1.539h2.199v.446h-2.714Zm4.886 0v-4.343h.816l1.075 3.65 1.091-3.65h.818v4.343h-.451v-3.808h-.084l-1.116 3.65h-.501l-1.116-3.65h-.084v3.808h-.448Zm6.488-.002a2.517 2.517 0 0 1-.862-.137 1.08 1.08 0 0 1-.549-.438 1.46 1.46 0 0 1-.19-.799V32.03h.533v2.983c-.014.13.005.26.054.383a.85.85 0 0 0 .23.32c.231.15.51.22.791.2a1.37 1.37 0 0 0 .823-.2.846.846 0 0 0 .232-.32.784.784 0 0 0 .054-.383V32.03h.537V35a1.48 1.48 0 0 1-.192.8 1.076 1.076 0 0 1-.558.439 2.62 2.62 0 0 1-.903.132Zm3.554.001a2.79 2.79 0 0 1-.423-.024c-.162-.021-.322-.031-.48-.053l-.419-.059.047-.395.39.044.46.041c.15.012.279.02.39.02.236.02.471-.05.658-.197a.809.809 0 0 0 .219-.63.69.69 0 0 0-.072-.37.602.602 0 0 0-.291-.221 3.029 3.029 0 0 0-.542-.15 3.908 3.908 0 0 1-.721-.217.91.91 0 0 1-.428-.357 1.414 1.414 0 0 1 .023-1.292.976.976 0 0 1 .472-.367 2.02 2.02 0 0 1 .709-.115c.139-.002.277.004.415.02.156.02.306.032.458.051.152.02.281.036.39.056l-.045.404a9.126 9.126 0 0 0-.39-.043l-.442-.042a4.202 4.202 0 0 0-.337-.018 1.117 1.117 0 0 0-.667.166.592.592 0 0 0-.228.513.71.71 0 0 0 .1.395.629.629 0 0 0 .323.22c.192.066.387.12.585.166.183.042.363.095.54.158a1.2 1.2 0 0 1 .374.213.728.728 0 0 1 .218.31c.05.149.074.306.07.463.012.261-.045.52-.164.752a.968.968 0 0 1-.465.418 1.78 1.78 0 0 1-.727.14Zm3.781-.001a1.782 1.782 0 0 1-.719-.137.947.947 0 0 1-.459-.438 1.73 1.73 0 0 1-.158-.799V32.03h.445v2.983c-.012.13.004.26.045.383a.864.864 0 0 0 .192.32.94.94 0 0 0 .659.2.997.997 0 0 0 .686-.2.865.865 0 0 0 .192-.32.932.932 0 0 0 .047-.383V32.03h.445V35a1.73 1.73 0 0 1-.158.8.951.951 0 0 1-.467.439 1.86 1.86 0 0 1-.75.132Zm2.462.002v-4.343h.453v3.89h1.719v.453h-2.172Zm2.715 0v-4.343h.931l1.225 3.65 1.251-3.65h.935v4.343h-.514v-3.808h-.098l-1.28 3.65h-.575l-1.279-3.65h-.096v3.808h-.5Zm4.885 0 1.12-4.343h1.024l1.113 4.343h-.473l-.291-1.1h-1.719l-.29 1.1h-.484Zm.866-1.545h1.528l-.609-2.37h-.318l-.601 2.37Zm3.477 1.545v-4.343h.795l1.386 3.897h.107v-3.897h.426v4.343h-.777l-1.409-3.897h-.101v3.897h-.427Z" fill="#333"/><path d="M27.623 8.143s-.638 2.11-.94 2.811c-.301.7.29.601.558 1.085.268.483.825.584 1.139.256.314-.329.682 0 .906-.371.224-.372-.956-5.796-1.224-6.465-.269-.67-.518-1.348-.739-1.04-.22.31.3 3.724.3 3.724Z" fill="#E6E6E6"/><path d="M26.602 8.676a.841.841 0 0 0 .506-.081c.323-.185 1.12-.678 1.12-1.065V3.96L26.6 3.8l.002 4.876Z" fill="#DCAD79"/><path d="M27.703 5.567s.299-.274.468-.05c.133.175.015.613-.144.88-.088.145-.341.115-.341.115l.017-.945Z" fill="#DCAD79"/><path d="M24.954 5.567s-.299-.274-.468-.05c-.133.175-.015.613.145.88.087.145.34.115.34.115l-.017-.945Zm1.643 3.109a.859.859 0 0 1-.505-.079c-.324-.18-1.12-.658-1.12-1.035V4.008L26.6 3.8l-.003 4.876Z" fill="#E3BD94"/><path d="M26.801 7.074c-.148-.053-.155.03-.201.068V7.6h.247c.073.002.144-.037.199-.11a.536.536 0 0 0 .097-.282s-.194-.08-.342-.134Z" fill="#A86638"/><path d="M26.198 7.074c.297-.053.31.03.402.068V7.6h-.492a.72.72 0 0 1-.397-.111.423.423 0 0 1-.197-.281s.387-.08.684-.134Z" fill="#B98560"/><path d="M26.6 7.947s-1.974.54-1.974-3.061h-.191s-.006 2.65-.006 3.348c0 0 .308 1.537 2.171 1.537V7.947Z" fill="#151515"/><path d="M26.6 7.947s1.48.54 1.48-3.061h.144s.005 2.65.005 3.348c0 0-.232 1.537-1.629 1.537V7.947Z" fill="#151515"/><path d="M28.123 3.805c-.553-.908-1.291-1.09-1.795-1.09-.503 0-1.244.182-1.797 1.09-.264.435.04 1.444.253 1.615 0 0 .207-.536 1.543-.536 1.337 0 1.544.545 1.544.545.215-.17.521-1.189.252-1.624Z" fill="#E6E6E6"/><path d="M24.429 4.343s.543-1.086 1.751-1.086c1.209 0 1.506.3 1.506.3s-.988-.07-1.506.05c-1.147.264-1.751.736-1.751.736Z" fill="#CCC"/><path d="M26.057 4.343c.52-.644 1.094-.718 1.629-.208l-1.629.208Z" fill="#CCC"/><path d="M25.823 8.143s-.093-.61.064-.716c.157-.107.713-.029.713-.029V7.22s-.42-.268-.728-.114c-.46.228-.345 1.004-.345 1.004l.296.034Zm1.551-.003s.091-.587-.064-.701c-.155-.114-.71-.03-.71-.03l.005-.184s.417-.278.724-.119c.46.236.344 1.037.344 1.037l-.3-.004Z" fill="#151515"/><path d="M68.4 26.057v-22.8h5.518l5.881 18.066L85.65 3.257h5.55v22.8h-3.19V6.897h-.466L81.47 25.294h-3.332L72.09 6.897h-.5v19.16H68.4Zm30.935 0c-1.593 0-2.804-.42-3.632-1.26-.83-.84-1.245-2.079-1.246-3.716 0-1.098.203-1.987.61-2.666a3.764 3.764 0 0 1 1.8-1.535 8.75 8.75 0 0 1 2.966-.612l4.875-.453v-1.26c0-1.011-.235-1.727-.707-2.145-.471-.419-1.178-.629-2.121-.63-.583 0-1.267.021-2.051.064a88.02 88.02 0 0 0-4.374.357l-.136-2.198c.56-.129 1.229-.246 2.003-.355.774-.11 1.586-.195 2.438-.29a23.603 23.603 0 0 1 2.354-.13c1.325 0 2.413.183 3.265.549.82.338 1.488.945 1.885 1.712.406.78.609 1.782.609 3.006v7.946a1.19 1.19 0 0 0 .555.954c.373.22.793.359 1.229.404l-.101 2.229c-.495 0-.96-.016-1.396-.049a5.574 5.574 0 0 1-1.197-.209 3.59 3.59 0 0 1-.959-.372 5.018 5.018 0 0 1-.79-.566 15.22 15.22 0 0 1-1.58.55 18.57 18.57 0 0 1-2.087.484c-.73.127-1.47.19-2.212.191Zm.64-2.391a9.75 9.75 0 0 0 1.733-.162 24.967 24.967 0 0 0 3.013-.743v-4.847l-4.47.421c-.948.065-1.621.318-2.02.759-.397.44-.6 1.07-.609 1.89 0 .841.197 1.498.59 1.97.392.472.98.71 1.763.712Zm17.962 2.391-2.977-.81 7.784-17.241v-.844h-10.373v-2.82h13.572v3.76l-8.006 17.955Zm12.892-.004V9.59h3.027v2.136c.479-.34.979-.647 1.497-.92.65-.349 1.317-.661 2-.937a11.11 11.11 0 0 1 2.161-.64v3.056c-.722.139-1.434.325-2.131.558-.727.242-1.4.5-2.018.773a18.68 18.68 0 0 0-1.513.738v11.703l-3.023-.004Zm15.016.004c-1.535 0-2.702-.42-3.502-1.26-.8-.84-1.2-2.079-1.2-3.716 0-1.098.196-1.987.587-2.666a3.669 3.669 0 0 1 1.735-1.535 8.175 8.175 0 0 1 2.87-.612l4.698-.453v-1.26c0-1.011-.227-1.727-.681-2.145-.454-.419-1.135-.629-2.042-.63-.564 0-1.222.021-1.979.064a72.87 72.87 0 0 0-2.238.162c-.736.064-1.394.13-1.977.195l-.129-2.198c.54-.129 1.174-.246 1.928-.355.754-.11 1.529-.195 2.349-.29a21.969 21.969 0 0 1 2.271-.13c1.274 0 2.322.183 3.144.549a3.611 3.611 0 0 1 1.817 1.712c.391.78.587 1.782.587 3.006v7.946a1.216 1.216 0 0 0 .533.954c.359.22.764.359 1.184.403l-.098 2.23c-.476 0-.925-.016-1.345-.049a5.155 5.155 0 0 1-1.151-.209 3.358 3.358 0 0 1-.924-.372 4.69 4.69 0 0 1-.763-.566c-.497.212-1.006.396-1.524.55-.661.2-1.335.36-2.016.48-.704.128-1.418.194-2.134.195Zm.617-2.391a9.104 9.104 0 0 0 1.67-.162 23.025 23.025 0 0 0 2.901-.743v-4.847l-4.307.421c-.913.065-1.562.318-1.946.759-.383.44-.579 1.07-.587 1.89 0 .841.189 1.498.568 1.97.378.472.945.71 1.701.712Zm12.052 2.391v-16.5h3.063v1.153a13.305 13.305 0 0 1 2.091-.97 7.173 7.173 0 0 1 2.584-.511c1.075 0 1.941.132 2.6.397a3.527 3.527 0 0 1 1.614 1.284 13.704 13.704 0 0 1 1.564-.757 13.35 13.35 0 0 1 2.024-.66c.7-.172 1.419-.26 2.14-.262 1.515 0 2.684.265 3.507.795.822.53 1.388 1.391 1.695 2.584.309 1.193.462 2.779.461 4.758v8.69h-3.029v-8.5c.02-1.09-.057-2.181-.231-3.258-.152-.814-.453-1.41-.904-1.79-.451-.378-1.136-.565-2.057-.558-.809 0-1.613.121-2.385.362-.632.182-1.244.424-1.829.724.176.662.281 1.34.314 2.025.053.823.08 1.663.082 2.52v8.474h-3.061v-8.4a20.53 20.53 0 0 0-.215-3.341c-.143-.823-.445-1.42-.904-1.79-.46-.37-1.141-.555-2.042-.558-.777 0-1.55.123-2.29.362a8.26 8.26 0 0 0-1.727.723v13.004h-3.065Z" fill="#333"/></svg>