<svg width="218.501" height="72.401" viewBox="0 0 218.501 72.401" xmlns="http://www.w3.org/2000/svg"><g id="svgGroup" stroke-linecap="round" fill-rule="evenodd" font-size="9pt" stroke="#000" stroke-width="0.25mm" fill="#000" style="stroke:#000;stroke-width:0.25mm;fill:#000"><path d="M 112.9 65.3 L 117.7 57.3 Q 121.3 60.3 125.8 62.2 A 23.348 23.348 0 0 0 131.17 63.71 A 32.118 32.118 0 0 0 136.3 64.1 A 27.981 27.981 0 0 0 140.847 63.754 Q 143.27 63.354 145.231 62.494 A 13.701 13.701 0 0 0 147.7 61.1 Q 151.748 58.209 151.895 53.366 A 12.116 12.116 0 0 0 151.9 53 A 11.94 11.94 0 0 0 151.563 50.107 A 9.816 9.816 0 0 0 150.7 47.85 A 8.097 8.097 0 0 0 149.5 46.194 Q 148.23 44.813 146.084 43.471 A 25.81 25.81 0 0 0 146.05 43.45 Q 142.934 41.508 137.165 39.28 A 118.584 118.584 0 0 0 135.9 38.8 Q 128.7 36 124.4 33.15 A 21.931 21.931 0 0 1 121.311 30.703 Q 119.594 29.053 118.538 27.188 A 13.303 13.303 0 0 1 118.25 26.65 Q 116.4 23 116.4 18 Q 116.4 13 119.15 8.95 Q 121.9 4.9 127.25 2.45 A 25.558 25.558 0 0 1 133.15 0.615 Q 136.393 0 140.2 0 Q 146.4 0 151.35 1.25 Q 156.3 2.5 161 4.8 L 157.5 12.9 A 31.496 31.496 0 0 0 153.374 10.881 A 41.686 41.686 0 0 0 149.55 9.55 Q 145 8.2 140 8.2 A 27.187 27.187 0 0 0 135.97 8.48 Q 133.838 8.8 132.1 9.487 A 12.616 12.616 0 0 0 129.6 10.8 A 9.902 9.902 0 0 0 127.437 12.765 A 7.359 7.359 0 0 0 125.8 17.5 A 10.464 10.464 0 0 0 126.092 20.022 A 8.562 8.562 0 0 0 126.9 22.1 Q 127.956 24.019 130.991 25.847 A 23.503 23.503 0 0 0 131.25 26 A 33.003 33.003 0 0 0 133.466 27.172 Q 135.735 28.275 138.946 29.523 A 130.016 130.016 0 0 0 141 30.3 A 81.228 81.228 0 0 1 145.978 32.329 Q 150.364 34.3 153.35 36.4 A 26.044 26.044 0 0 1 156.39 38.878 Q 158.613 41.006 159.8 43.35 A 17.579 17.579 0 0 1 161.541 49.213 A 22.155 22.155 0 0 1 161.7 51.9 A 21.71 21.71 0 0 1 161.033 57.401 A 17.105 17.105 0 0 1 158.45 63 Q 155.2 67.6 149.45 70 A 30.521 30.521 0 0 1 142.04 72.004 A 40.027 40.027 0 0 1 136.3 72.4 Q 129 72.4 123 70.45 A 38.206 38.206 0 0 1 117.633 68.268 A 28.433 28.433 0 0 1 112.9 65.3 Z M 169.7 65.3 L 174.5 57.3 Q 178.1 60.3 182.6 62.2 A 23.348 23.348 0 0 0 187.97 63.71 A 32.118 32.118 0 0 0 193.1 64.1 A 27.981 27.981 0 0 0 197.647 63.754 Q 200.07 63.354 202.031 62.494 A 13.701 13.701 0 0 0 204.5 61.1 Q 208.548 58.209 208.695 53.366 A 12.116 12.116 0 0 0 208.7 53 A 11.94 11.94 0 0 0 208.363 50.107 A 9.816 9.816 0 0 0 207.5 47.85 A 8.097 8.097 0 0 0 206.3 46.194 Q 205.03 44.813 202.884 43.471 A 25.81 25.81 0 0 0 202.85 43.45 Q 199.734 41.508 193.965 39.28 A 118.584 118.584 0 0 0 192.7 38.8 Q 185.5 36 181.2 33.15 A 21.931 21.931 0 0 1 178.111 30.703 Q 176.394 29.053 175.338 27.188 A 13.303 13.303 0 0 1 175.05 26.65 Q 173.2 23 173.2 18 Q 173.2 13 175.95 8.95 Q 178.7 4.9 184.05 2.45 A 25.558 25.558 0 0 1 189.95 0.615 Q 193.193 0 197 0 Q 203.2 0 208.15 1.25 Q 213.1 2.5 217.8 4.8 L 214.3 12.9 A 31.496 31.496 0 0 0 210.174 10.881 A 41.686 41.686 0 0 0 206.35 9.55 Q 201.8 8.2 196.8 8.2 A 27.187 27.187 0 0 0 192.77 8.48 Q 190.638 8.8 188.9 9.487 A 12.616 12.616 0 0 0 186.4 10.8 A 9.902 9.902 0 0 0 184.237 12.765 A 7.359 7.359 0 0 0 182.6 17.5 A 10.464 10.464 0 0 0 182.892 20.022 A 8.562 8.562 0 0 0 183.7 22.1 Q 184.756 24.019 187.791 25.847 A 23.503 23.503 0 0 0 188.05 26 A 33.003 33.003 0 0 0 190.266 27.172 Q 192.535 28.275 195.746 29.523 A 130.016 130.016 0 0 0 197.8 30.3 A 81.228 81.228 0 0 1 202.778 32.329 Q 207.164 34.3 210.15 36.4 A 26.044 26.044 0 0 1 213.19 38.878 Q 215.413 41.006 216.6 43.35 A 17.579 17.579 0 0 1 218.341 49.213 A 22.155 22.155 0 0 1 218.5 51.9 A 21.71 21.71 0 0 1 217.833 57.401 A 17.105 17.105 0 0 1 215.25 63 Q 212 67.6 206.25 70 A 30.521 30.521 0 0 1 198.84 72.004 A 40.027 40.027 0 0 1 193.1 72.4 Q 185.8 72.4 179.8 70.45 A 38.206 38.206 0 0 1 174.433 68.268 A 28.433 28.433 0 0 1 169.7 65.3 Z M 108.9 68.7 L 100.2 72.2 L 92.4 52.2 L 60 52.2 L 52.2 72 L 44.1 68.7 L 71.5 1.2 L 81.9 1.2 L 108.9 68.7 Z M 9.5 71.2 L 0 71.2 L 0 1.4 Q 4.1 0.9 9.05 0.65 A 200.806 200.806 0 0 1 17.98 0.404 A 221.966 221.966 0 0 1 19.3 0.4 Q 26.87 0.4 32.472 2.482 A 26.011 26.011 0 0 1 34.1 3.15 A 24.606 24.606 0 0 1 39.182 6.179 A 19.374 19.374 0 0 1 43.4 10.7 Q 46.6 15.5 46.6 21.7 A 25.258 25.258 0 0 1 45.892 27.822 A 19.268 19.268 0 0 1 42.9 34.4 A 22.312 22.312 0 0 1 35.349 41.03 A 28.065 28.065 0 0 1 32.6 42.35 A 34.774 34.774 0 0 1 24.511 44.574 A 47.194 47.194 0 0 1 17.3 45.1 Q 13.1 45.1 9.5 44.8 L 9.5 71.2 Z M 9.5 8.8 L 9.5 36.7 Q 10.6 36.838 12.031 36.952 A 96.255 96.255 0 0 0 13.4 37.05 Q 15.7 37.2 18.5 37.2 A 31.831 31.831 0 0 0 23.88 36.775 Q 26.759 36.28 29.063 35.211 A 15.221 15.221 0 0 0 32.3 33.2 A 12.896 12.896 0 0 0 37.155 23.758 A 17.32 17.32 0 0 0 37.2 22.5 A 14.452 14.452 0 0 0 36.439 17.707 A 12.136 12.136 0 0 0 32.5 12.2 A 15.462 15.462 0 0 0 27.419 9.537 Q 25.193 8.826 22.5 8.56 A 34.58 34.58 0 0 0 19.1 8.4 A 131.125 131.125 0 0 0 15.842 8.439 A 109.939 109.939 0 0 0 14 8.5 A 91.274 91.274 0 0 0 11.117 8.664 A 75.041 75.041 0 0 0 9.5 8.8 Z M 76.2 10.6 L 63 44.2 L 89.3 44.2 L 76.2 10.6 Z" vector-effect="non-scaling-stroke"/></g></svg>