<svg width="200" height="200" viewBox="0 0 200 200" fill="none" xmlns="http://www.w3.org/2000/svg">
<circle cx="100" cy="100" r="99.5" stroke="#696969" stroke-dasharray="5 5"/>
<path d="M103.18 89.5L105.925 92.5H112V110.5H88V92.5H94.075L96.82 89.5H103.18ZM104.5 86.5H95.5L92.755 89.5H88C86.35 89.5 85 90.85 85 92.5V110.5C85 112.15 86.35 113.5 88 113.5H112C113.65 113.5 115 112.15 115 110.5V92.5C115 90.85 113.65 89.5 112 89.5H107.245L104.5 86.5ZM100 97C102.475 97 104.5 99.025 104.5 101.5C104.5 103.975 102.475 106 100 106C97.525 106 95.5 103.975 95.5 101.5C95.5 99.025 97.525 97 100 97ZM100 94C95.86 94 92.5 97.36 92.5 101.5C92.5 105.64 95.86 109 100 109C104.14 109 107.5 105.64 107.5 101.5C107.5 97.36 104.14 94 100 94Z" fill="#333333"/>
</svg>
