<svg width="99" height="80" viewBox="0 0 99 80" fill="none" xmlns="http://www.w3.org/2000/svg"><path d="M49.5 22c1.1 0 2 .9 2 2s-.9 2-2 2-2-.9-2-2 .9-2 2-2Zm0 9c2.7 0 5.8 1.29 6 2v1h-12v-.99c.2-.72 3.3-2.01 6-2.01Zm0-11c-2.21 0-4 1.79-4 4s1.79 4 4 4 4-1.79 4-4-1.79-4-4-4Zm0 9c-2.67 0-8 1.34-8 4v3h16v-3c0-2.66-5.33-4-8-4ZM37.059 56.349h-1.851v-.972h1.85c.323 0 .583-.052.782-.156a.974.974 0 0 0 .434-.43 1.38 1.38 0 0 0 .142-.635c0-.224-.047-.434-.142-.63a1.078 1.078 0 0 0-.434-.478c-.199-.12-.46-.18-.781-.18h-1.475V59h-1.226v-7.11h2.7c.55 0 1.018.098 1.402.294.387.192.682.459.884.8.202.339.303.726.303 1.163 0 .459-.101.852-.303 1.181a1.949 1.949 0 0 1-.884.757c-.384.176-.851.264-1.401.264Zm5.25-1.626V59h-1.176v-5.283h1.123l.054 1.006Zm1.617-1.04-.01 1.093a3.062 3.062 0 0 0-.478-.04c-.202.001-.38.03-.533.09a1.003 1.003 0 0 0-.62.624c-.055.15-.088.318-.097.503l-.27.02c0-.332.034-.64.099-.923a2.5 2.5 0 0 1 .293-.747c.133-.215.299-.383.498-.503.201-.12.434-.18.698-.18a1.46 1.46 0 0 1 .42.063Zm.886 2.734v-.112c0-.381.055-.734.166-1.06.11-.329.27-.613.478-.854a2.16 2.16 0 0 1 .771-.567 2.512 2.512 0 0 1 1.036-.205c.387 0 .732.069 1.035.205.306.134.565.323.776.567.212.24.373.525.484.854.11.326.166.679.166 1.06v.112c0 .38-.056.734-.166 1.06-.111.325-.272.61-.484.854a2.23 2.23 0 0 1-.771.566 2.53 2.53 0 0 1-1.03.2c-.388 0-.735-.066-1.04-.2a2.242 2.242 0 0 1-.772-.566 2.536 2.536 0 0 1-.483-.854 3.274 3.274 0 0 1-.166-1.06Zm1.176-.112v.112c0 .238.025.462.074.674.048.211.125.397.229.556.104.16.238.285.4.376.163.092.357.137.581.137a1.115 1.115 0 0 0 .967-.513 1.74 1.74 0 0 0 .23-.556c.052-.212.078-.436.078-.674v-.112c0-.235-.026-.456-.078-.664a1.708 1.708 0 0 0-.235-.562 1.121 1.121 0 0 0-.971-.522c-.222 0-.414.047-.576.141-.16.091-.292.218-.396.381-.104.163-.18.35-.23.562a2.95 2.95 0 0 0-.073.664ZM52.724 59h-1.182v-5.625c0-.426.085-.786.254-1.08.172-.292.418-.515.737-.668.322-.153.705-.23 1.148-.23.26 0 .51.028.752.084.244.055.496.125.757.21l-.181.956a6.786 6.786 0 0 0-.552-.156 2.806 2.806 0 0 0-.698-.078c-.355 0-.617.082-.786.244-.166.16-.25.399-.25.718V59Zm1.06-5.283v.86H50.73v-.86h3.052Zm1.962 0V59H54.57v-5.283h1.177ZM58.82 51.5V59h-1.181v-7.5h1.181Zm4.118 7.598c-.39 0-.743-.064-1.06-.19a2.353 2.353 0 0 1-.8-.543 2.402 2.402 0 0 1-.503-.815 2.855 2.855 0 0 1-.176-1.01v-.196c0-.414.06-.788.181-1.123a2.55 2.55 0 0 1 .503-.86 2.16 2.16 0 0 1 .762-.551c.293-.127.61-.19.952-.19.377 0 .708.063.991.19.283.127.518.306.703.537.189.227.329.5.42.815.095.316.142.664.142 1.045v.503H60.97v-.845h2.92v-.093a1.652 1.652 0 0 0-.127-.595 1.013 1.013 0 0 0-.347-.45c-.156-.113-.365-.17-.625-.17a1.022 1.022 0 0 0-.898.483c-.101.156-.18.345-.235.566a3.182 3.182 0 0 0-.078.738v.195c0 .231.031.446.093.645.065.195.16.366.283.512.124.147.273.262.45.347.175.081.375.122.6.122.283 0 .535-.057.757-.17.221-.115.413-.276.576-.484l.62.6a2.417 2.417 0 0 1-.444.479 2.22 2.22 0 0 1-.67.366 2.66 2.66 0 0 1-.907.142Z" fill="#8E8E8E"/></svg>