<svg width="202" height="214" viewBox="0 0 202 214" fill="none" xmlns="http://www.w3.org/2000/svg"><path d="M170.838 183.534c.662 6.641-.412 15.104-.397 18.256 0 3.056.397 6.737 1.004 8.559.191.564-6.819 1.4-8.762 1.511a15.284 15.284 0 0 1-4.831-.725 10.148 10.148 0 0 0 4.444-7.316c.502-4.984-.618-17.179-.618-17.179l9.16-3.106Z" fill="#DADADA"/><path d="M171.3 212.998c.617-.157.502-1.868.206-2.865a37.374 37.374 0 0 1-.593-2.044 38.911 38.911 0 0 1-4.836 1.581c-2.902.689-6.121-.741-6.121-.741s-5.74 1.591-7.211 3.187c-1.688 1.823 6.653 1.813 9.676 1.34 3.023-.474 7.096-.01 8.879-.458Z" fill="#2BA070"/><path d="M158.098 47.83c-3.54 5.952-8.919 12.668-10.711 14.858-1.793 2.19-3.259 6.933-2.757 8.791.502 1.858 5.699 2.1 5.699 2.1l5.65-8.912 3.314-11.711-1.195-5.126Z" fill="#EEE"/><path d="M181.358 149.68c-2.605-.212-5.207-.43-7.809-.655-6.427-.554-12.86-1.359-19.293-2.129.372 6.776.723 13.04.939 15.91.367 4.999-.612 34.347-.612 34.347 5.112 1.702 30.662 1.485 30.662 1.485l-3.772-45.847s-.035-1.148-.115-3.111Z" fill="#31C48D"/><path d="M163.129 108.122c-2.189-2.437-4.519-5.125-7.03-7.713.804-7.643 1.843-13.594 1.843-13.594s12.137.503 16.677 7.9c2.27 3.7 2.375 18.568 1.913 32.53-3.892-6.682-8.095-13.192-13.403-19.123Z" fill="#1B32A1"/><path d="m175.729 149.211-2.18-.186a310.263 310.263 0 0 1-8.069-.805c-.171 6.132-.272 11.786-.066 14.601.367 4.999-.818 35.475-.818 35.475 3.013.362 8.034.121 12.991.352l-2.461-41.411s.266-3.152.603-8.026Z" fill="#2BA070"/><path d="M189.257 186.605c.623 6.646-1.607 14.097-1.592 17.279 0 3.057 1.004 4.295 1.341 5.655.145.568-6.528 2.19-8.321 2.285a13.433 13.433 0 0 1-4.519-.725 10.178 10.178 0 0 0 4.157-7.315c.503-4.985-.577-17.179-.577-17.179h9.511Z" fill="#DADADA"/><path d="M189.322 213.093c.598-.151.402-2.104.186-2.865-.288-.84-.66-1.65-1.11-2.416a13.411 13.411 0 0 1-4.133 1.928c-2.802.67-5.915-.775-5.915-.775s-4.791 1.565-6.207 3.151c-1.617 1.818 5.695 1.853 8.612 1.395 2.918-.458 6.83.025 8.567-.418Z" fill="#2BA070"/><path d="M193.119 159.296s.421-3.368 1.004-8.629a1289.025 1289.025 0 0 1-20.589-1.642l-2.249-.206c.833 6.162 1.506 11.806 1.431 14.57-.045 1.904-.181 7.417-.332 13.534l-.532 21.685c4.896 2.074 22.914 1.923 22.914 1.923l-.789-19.57-.858-21.665Z" fill="#31C48D"/><path d="M194.128 150.667a1289.025 1289.025 0 0 1-20.589-1.642c-6.427-.554-12.86-1.359-19.298-2.129.377 6.776.728 13.04.944 15.915.091 1.299.101 4.269.055 7.944l.568.272c1.878.861 3.791 1.677 5.72 2.442.225.091 1.18.443 1.662.625.376.136.738.251.858.297a121.87 121.87 0 0 0 8.341 2.517 146.46 146.46 0 0 0 9.898 2.291l.467.091.909.176c.934.176 1.878.352 2.822.503 1.838.307 3.791.715 5.669.841.347 0 .653.035.804.055l1.004.091-.874-21.65s.452-3.378 1.04-8.639Z" fill="#2BA070"/><path d="M198.934 171.767c-4.058 1.299-16.175 2.17-29.979-.322l-.302-.05a227.18 227.18 0 0 1-5.825-1.153c-6.653-1.415-11.319-2.739-11.319-2.739s1.557-26.231 2.667-51.859c.557-12.833.673-24.076.597-32.298-.075-8.222-.351-13.408-.597-14.178-.889-2.835 1.27-10.347 3.259-14.672a35.1 35.1 0 0 1 .502-1.042c2.109-4.028 7.03-18.236 7.03-18.236l3.079-.231s-5.765 8.116 4.871 7.698c5.87-.232 14.562-4.104 14.562-4.104l-.693 2.518s3.922 15.422 5.755 25.964c.454 2.384.757 4.794.909 7.215.095 2.84.814 15.543 1.702 30.758 1.612 27.707 3.782 66.731 3.782 66.731Z" fill="#EEE"/><path d="M154.758 81.83c2.587 2.387 4.399 3.172 8.351 4.985 2.737 1.259 6.704 1.208 10.596 2.2 6.172 1.576 8.035 8.902 21.091 9.672-.548-9.304-1.281-22.395-1.346-24.409a57.893 57.893 0 0 0-.919-7.21L174.86 50.111c-1.135-1.092-2.436-2.255-4.017-2.28a6.225 6.225 0 0 0-2.612.77 101.545 101.545 0 0 0-10.776 5.87c-2.009 4.325-4.148 11.837-3.259 14.672.211.72.477 5.332.562 12.688Z" fill="#DADADA"/><path d="M201.193 79.177a50.065 50.065 0 0 0-1.004-9.566c-1.456-6.671-6.312-21.06-7.367-28.195-1.054-7.134-5.453-24.449-5.453-24.449l-8.336 3.65-.397.171-12.795 9.859c-.371.846-3.038 6.424-4.831 9.36-1.727 2.819-9.405 13.73-11.092 19.469 0 0 3.354 2.95 6.061 12.003 1.135 3.796 7.12 15.296 7.12 15.296a56.226 56.226 0 0 0 8.502-8.177c1.747-3.02 5.584-7.215 5.679-7.275a9.607 9.607 0 0 1 5.815-2.08c.503-1.857 8.949 4.97 9.406 7.17.502 2.573 1.24 10.387 1.451 13.01.387 4.813.638 10.573 1.2 13.765.553-1.289 3.089-5.563 4.625-10.956 1.05-3.69 1.492-8.463 1.416-13.055Z" fill="#31C48D"/><path d="M172.204 68.74a29.57 29.57 0 0 1 13.754-9.697s-7.874 4.4-9.581 10.704l-4.173-1.007Z" fill="#2BA070"/><path d="M196.985 74.57c-2.064-3.524-5.277-6.419-9.455-6.887-4.279-.504-8.723 1.707-11.902 4.45-4.017 3.48-8.225 9.32-14.171 6.163a15.308 15.308 0 0 1-4.112-3.333c2.139 4.874 5.764 11.837 5.764 11.837a56.231 56.231 0 0 0 8.502-8.177c1.747-3.02 5.584-7.215 5.679-7.275a9.607 9.607 0 0 1 5.805-2.105c.503-1.857 8.949 4.97 9.406 7.17.502 2.573 1.24 10.387 1.451 13.01.387 4.813.638 10.573 1.2 13.765.553-1.289 3.089-5.563 4.625-10.956a39.306 39.306 0 0 0 1.221-7.21c-1.045-3.569-2.135-7.25-4.013-10.452Zm-38.797-25.657c1.471 7.205 6.182 7.285 12.117 3.056 5.022-3.58 12.123-16.288 12.123-16.288s-8.823 19.969-17.114 22.058c-8.291 2.09-7.126-8.826-7.126-8.826ZM177.22 27.5c-.939 4.189-5.398 10.88-8.838 10.467-2.45-.292-4.966-5.538-3.977-7.099 1.055.665 2.732 1.908 3.957 2.382.317.142.657.224 1.004.241.34-.02.671-.108.975-.261 1.807-.801 5.001-5.695 6.879-5.73Z" fill="#2BA070"/><path d="M167.081 9.118c-3.56.332-4.273 2.265-4.273 2.265-.683 1.239-2.425 4.215-2.596 6.364-.171 2.15 1.637 8.932 3.118 10.684.813.896 1.75 1.671 2.782 2.301l5.117-13.09-4.148-8.524Z" fill="#2BA070"/><path d="M164.666 9.631c-.673 1.672-3.796 6.546-3.761 8.378 0 1.31.115 3.525-.04 6.697-.156 3.172 2.872 6.751 3.55 7.441.678.69 3.364 3.63 6.342 2.351 1.898-.81 3.4-2.371 4.565-3.78 1.165-1.41 3.45-6.043 3.957-8.983.507-2.94-3.199-10.16-3.199-10.16L164.666 9.63Z" fill="#FEC1B2"/><path d="M178.039 22.923s2.179-7.89.808-9.672c-2.511-3.292-10.977-4.456-14.121-2.366-.843.554-2.621 2.462-2.952 4.395 2.455-2.542 7.381-3.413 11.585-.503 3.178 2.205 4.68 8.146 4.68 8.146Z" fill="#EDF3FC"/><path d="M161.492 13.86c1.848-2.27 4.339-3.02 5.283-3.07 4.951-.227 8.678 1.404 10.445 8.559.894 3.614-.728 9.535-.728 9.535l12.83 1.355s-1.089-9.909-1.923-13.247c-2.641-10.573-10.37-11.58-14.256-11.53a13.54 13.54 0 0 0-9.039 3.721c-1.773 1.722-2.612 4.678-2.612 4.678Z" fill="#31C48D"/><path d="M153.242 60.483c-1.918 2.205-6.594 7.552-8.075 9.616-1.481 2.065-.06 7.447 2.134 8.56 2.195 1.112 7.583-.504 9.762-3.525 2.18-3.02.266-5.035.839-6.006a7.183 7.183 0 0 0 .708-2.518l-5.368-6.127Z" fill="#EEE"/><path d="M154.246 60.18c-.567.69.452 5.902 2.355 7.05 1.904 1.148 2.511-1.088 2.175-3.263-.337-2.175-3.279-5.297-4.53-3.786Z" fill="#C05141"/><path d="M158.901 43.365a.647.647 0 0 0-.176.055 4.647 4.647 0 0 0-.537-1.616l-.06-.106c-.648-1.239-1.215-.65-1.215-.65a3.473 3.473 0 0 0-.226-1.188c-.282-1.007-1.005-1.344-1.276-1.133-.442.343-.226 1.702-.226 1.702-.201-.503-.638-.66-.959-.327-.321.332-.246 2.633-.151 4.028a.732.732 0 0 0-.567.372c-.372.534-.276 2.402-.151 4.028.101 1.425-.868 3.761-.612 4.703.308.943.72 1.848 1.23 2.699.325.778.402 1.638.221 2.462a6.083 6.083 0 0 1-.949 2.089c-.146 2.09 2.707 6.893 3.359 6.757.141-.393 2.888-7.11 3.259-7.955.744-1.677 1.723-2.452 1.974-3.56.251-1.108-.502-5.704-.768-7.396-.216-1.304-.754-3.076-1.055-4.285a.857.857 0 0 0-.748-.718.855.855 0 0 0-.367.039Z" fill="#E3937F"/><path d="M166.152 66.026c-.316 1.249-1.787 1.093-2.696 1.178-.728.076-.131-2.492.191-5.367.311-2.729 1.958-4.531 2.807-3.252.848 1.279.341 4.909-.302 7.441Z" fill="#C05141"/><path d="M181.027 67.783c-.241 3.283-.387 6.576-.573 9.823 0 .212 0 .423-.025.63a49.192 49.192 0 0 1-5.499-3.213c-2.887-2.013-7.381-7.18-10.364-10.32-1.035-1.008-3.189-4.739-3.872-5.383-1.376-1.279-2.606-1.611-3.284-2.553-.678-.941-1.828-5.573-2.25-7.275-.321-1.32-.527-3.207-.728-4.466a.881.881 0 0 1 .773-1.088.933.933 0 0 1 .186-.025 4.755 4.755 0 0 1-.14-1.737v-.126c.06-.745.291-1.006.502-1.097a.5.5 0 0 1 .321 0h.05a1.085 1.085 0 0 1-.105-.287c-.025-.131-.055-.267-.08-.403v-.035l-.041-.222-.035-.261c-.13-1.043.402-1.672.748-1.587.223.101.402.28.503.504.164.31.292.638.381.977a.813.813 0 0 1 .126-.504.499.499 0 0 1 .638-.166c.341.151 1.17 2.075 1.647 3.449.356 1.007.823 1.747.964 2.185h.04c.082-.027.166-.047.251-.06a.828.828 0 0 1 .588.105c.567.343.632.504 1.16 2.07.502 1.384 1.878 3.02 2.008 4.027.087 1.007.063 2.02-.07 3.021-.101 1.098.502 3.132 1.652 4.486 3.244 2.588 8.22 5.69 10.771 7.22.904.54 2.632 1.304 3.757 2.311Z" fill="#FEC1B2"/><path d="M187.54 85.778c-1.587-.212-14.312-6.445-18.691-10.11-1.029-.866-2.712-4.144-3.179-5.16a12.518 12.518 0 0 0-2.154-3.238c.176.13.758.201 1.908-2.784 1.427-3.68 1.005-6.284 1.005-6.284l4.208 2.518s8.386 4.103 8.647 4.229a16.654 16.654 0 0 1 3.586-1.057c3.781-.444 11.765 1.586 11.765 8.695 0 1.258.517 14.213-7.095 13.19Z" fill="#EEE"/><path d="M156.777 50.056a6.544 6.544 0 0 1-.778-2.346c-.226-1.33-.668-3.021-.794-3.771a.706.706 0 0 1 .186 0 4.805 4.805 0 0 1-.14-1.742v-.121c.225.805.682 3.746.939 5.17.256 1.304.552 2.644.587 2.81Zm1.356-.75s-.703-1.974-.849-2.462c-.221-.73-1.376-5.443-1.506-5.891a.5.5 0 0 1 .321 0c.271 1.319 2.034 8.353 2.034 8.353Zm1.687-.544c-.115-.413-1.24-4.224-1.687-5.8-.472-1.662-.608-3.278-1.004-4.275.164.31.292.638.381.977a.813.813 0 0 1 .126-.504c.115.635.869 3.872 1.039 4.592.638 2.633 1.02 4.476 1.145 5.01Zm3.159 1.566c-.211-.455-.397-.92-.558-1.395-.195-.614-.778-2.014-1.114-3.071-.081-.252-.211-.72-.367-1.279.082-.027.166-.047.251-.06.319 1.317.77 2.6 1.346 3.826.278.623.429 1.296.442 1.979Z" fill="#E3937F"/><path d="M168.653 171.395a227.18 227.18 0 0 1-5.825-1.153c-.924-9.365-3.43-39.493-2.631-51.823.969-15.024 1.642-22.531 1.642-22.531s.758 24.408 1.506 39.81c.593 12.089 3.711 28.366 5.308 35.697Z" fill="#DADADA"/><path d="M189.428 31.855c-.372-7.049-7-17.315-7-17.315s5.056 4.532 6.628 10.271c.588 2.3.714 4.695.372 7.044Z" fill="#2BA070"/><path d="M183.909 65.925c1.004 1.974 2.546 7.326 2.641 7.653-2.325-4.53-7.266-8.634-7.266-8.634a16.668 16.668 0 0 1 3.585-1.058c3.782-.443 11.766 1.586 11.766 8.696-1.295-5.901-10.726-6.656-10.726-6.656Z" fill="#DADADA"/><path d="M164.716 28.12a2.077 2.077 0 0 0 2.23 1.762c1.471-.162 2.174-1.748 2.41-2.347-.592.68-3.635 1.536-4.64.584Z" fill="#4C2C2D"/><path d="M166.539 22.113c-.838 2.054-1.29 3.202-1.326 3.78-.035.58 1.708.68 1.708.68" stroke="#FDA086" stroke-width=".57" stroke-linecap="round" stroke-linejoin="round"/><path d="M170.039 21.916c-.025.504-.341.881-.703.861-.361-.02-.633-.443-.602-.936.03-.494.346-.886.708-.861.361.025.627.458.597.936Z" fill="#4C2C2D"/><path d="M161.859 24.403a3.005 3.005 0 0 0 1.717.262s-1.039 1.204-1.717-.262Zm7.783.635a3.008 3.008 0 0 0 1.728-.222s-.668 1.445-1.728.222Z" fill="#FF9876"/><path d="M161.899 18.206c.753-.383 1.913-.54 2.511-.222 0 0-.362.569-.532.594a6.63 6.63 0 0 0-1.733.161 4.06 4.06 0 0 0-1.13.66 1.614 1.614 0 0 1 .884-1.193Zm9.305-.453a7.362 7.362 0 0 0-3.113 0s.462.568.673.589c.827-.03 1.655-.014 2.48.05.511.098.989.32 1.391.65a2.155 2.155 0 0 0-1.431-1.29Zm-8.496 3.735c-.031.504-.347.886-.708.861-.362-.025-.638-.433-.608-.936.03-.504.346-.881.708-.861.362.02.608.443.608.936Z" fill="#4C2C2D"/><path d="M46.206 38.914c-3.761.272-6.82 7.461-5.464 13.674.874 4.028 4.52 11.52 6.443 15.467 2.35 4.849 5.022 5.755 5.022 5.755s10.736 3.056 8.823-6.62c-.733-3.686-3.812-12.17-6.157-16.243-5.74-9.949-8.667-12.033-8.667-12.033Z" fill="#31C48D"/><path d="M28.952 18.76s-2.582 10.572-2.978 11.212c-1.532 2.462-1.858 2.215-5.805 5.468 0 0 13.177 7.809 17.304 8.201 4.128.393 3.47-8.055 3.47-8.055s-2.757-1.913-3.224-3.127c-.698-1.807-1.285-9.742-1.285-9.742l-7.482-3.958Z" fill="#FEC4AD"/><path d="M37.167 32.444a36.743 36.743 0 0 1-4.846-1.782 18.415 18.415 0 0 1-.844-.403 27.721 27.721 0 0 1-1.852-1.203c-.221-.162-1.366-1.113-1.447-1.123a31.29 31.29 0 0 1-1.095-1.214c-.03-.035-.065-.065-.095-.095.879-3.313 2.009-7.865 2.009-7.865l7.482 3.963s.587 7.935 1.285 9.742c.023.052.048.102.076.151l-.673-.171Z" fill="#F7A281"/><path d="M41.42 5a7.192 7.192 0 0 1 2.21 6.752c-.437 1.967-1.944 6.358-1.944 6.358s-1.536-6.767-2.57-9.148c-1.035-2.382-2.758-5.539-2.758-5.539L41.42 5Z" fill="#4C2C2D"/><path d="M38.432 4.707c1.371.76 3.721 2.372 3.837 3.59.115 1.219.663 4.768.502 6.857-.16 2.09.221 6.163-.12 8.605-.342 2.442-3.194 6.042-3.877 6.404-2.943 1.637-6.091-.181-8.537-1.822-2.847-1.914-4.951-3.69-4.75-8.912 0 0-1.23-9.939-.693-11.379 1.305-3.524 8.722-1.958 10.846-2.255 2.124-.297 2.792-1.088 2.792-1.088Z" fill="#FEC4AD"/><path d="M27.987 9.284c-.723 1.133-2.149 2.366-1.968 3.409a8.79 8.79 0 0 0 1.14 3.242l-.809 1.984s.457.503-.336 2.603c-.437 1.138-6.87-6.707-5.705-12.658.749-3.811 4.44-2.628 4.44-2.628.612-3.862 2.736-5.448 8.993-5.211C41.481.317 44.59 2.784 44.59 2.784c-.035.871-.085 5.005-5.684 4.904-5.6-.1-10.184-.57-10.184-.57a4.574 4.574 0 0 1-.734 2.166Z" fill="#4C2C2D"/><path opacity=".3" d="M39.678 16.257c.17-.503.206-.428 1.797-.468 1.592-.04 2.26.06 2.511.312.251.252.427 1.007.04 2.014-.32.85-.893 1.334-2.43 1.289-1.386-.04-1.602-.438-1.813-1.274a4.79 4.79 0 0 1-.105-1.873Zm-7.99-.574c.277-.252 1.175-.196 2.807-.095 1.633.1 2.18.13 2.35.654a4.402 4.402 0 0 1-.175 1.777c-.226.876-.306 1.47-2.38 1.39-1.507-.06-2.511-.242-2.742-1.51-.231-1.27-.136-1.96.14-2.216Z" fill="#EEE"/><path d="M29.896 16.09c.05.217.678.358.788.419.236.136.136.79.477 1.747.437 1.233 1.567 1.55 3.877 1.43 2.119-.116 2.134-1.687 2.425-2.341.291-.655.502-.735.809-.73.306.005.502.095.763.76.261.664.13 2.22 2.26 2.3 1.466.056 2.435-.186 2.837-1.092.323-.714.545-1.47.658-2.245.08-.63.15-1.007-.226-1.108a15.13 15.13 0 0 0-2.255-.146c-1.275 0-2.17-.146-2.927.151-.759.297-.739.549-1.105.549-.367 0-.377-.272-1.13-.59-.753-.317-2.908-.332-4.183-.352-1.276-.02-3.058.086-3.108.504-.024.249-.01.5.04.745Zm9.772.167c.17-.503.206-.428 1.797-.468 1.592-.04 2.26.06 2.511.312.251.252.427 1.007.04 2.014-.32.85-.893 1.334-2.43 1.289-1.386-.04-1.602-.438-1.813-1.274a4.79 4.79 0 0 1-.095-1.873h-.01Zm-7.98-.574c.277-.252 1.175-.196 2.807-.096 1.633.101 2.18.131 2.35.655a4.402 4.402 0 0 1-.175 1.777c-.226.876-.306 1.47-2.38 1.39-1.507-.06-2.511-.242-2.742-1.51-.231-1.27-.136-1.96.14-2.216Zm-6.437.448 4.645-.04 1.46-1.224s-2.45-.04-4.704 0a7.657 7.657 0 0 0-2.23.469c.322.212.603.482.829.795Z" fill="#1A5841"/><path d="M27.089 18.634a8.443 8.443 0 0 0-1.718-2.795c-.939-.921-2.36-.951-2.737.504-.457 1.762 1.155 2.9 1.24 3.937a2.84 2.84 0 0 0 1.819 2.422l1.396-4.068Z" fill="#FEC4AD"/><path opacity=".52" d="M24.512 16.81c-.683-.417-1.195.142-1.31.751-.116.61.075.252.502-.146s1.044.438 1.07 1.007c.03.8.451 1.752 1.17 1.717.718-.035.316-.227.105-1.052-.21-.826.04 0-.286-.806a2.712 2.712 0 0 0-1.25-1.47Z" fill="#E38168"/><path d="M42.274 210.963c-2.089-.75-4.329-2.879-4.329-2.879l-.145-9.758 7.16.624s-.3 7.507 0 9.008c.302 1.5-2.686 3.005-2.686 3.005Z" fill="#2EA478"/><path d="M46.14 207.837c-1.25-.645-2.41-.378-3.971.503-1.562.881-4.4-.251-4.4-.251s-.567.503-.848 2.255c-.281 1.752-.427 2.754-.146 3.379.282.624 16.26 0 17.676 0 1.416 0 1.005-1.254-1.275-2.13-2.28-.876-5.333-2.885-7.035-3.756Zm-19.67-89.252s4.52 26.684 5.183 32.328c.663 5.644 4.183 52.987 4.183 52.987s10.129.196 10.129 0c0-.197 4.544-51.26 4.695-65.312.15-14.052-2.626-26.181-1.235-28.069 1.39-1.888-2.747-15.865-2.747-15.865l-11.46 2.155-8.747 21.776Z" fill="#1A5841"/><path d="M34.48 98.647c.267 6.545.337 13.09.297 19.605-1.11 16.696 2.716 30.426 2.972 47.156.151 9.833 1.944 35.39 2.2 38.577-2.561 0-4.113-.08-4.113-.08s-3.515-47.328-4.183-52.987c-.668-5.659-5.182-32.333-5.182-32.333l8.01-19.938Z" fill="#227153"/><path d="M19.933 210.963c-2.17-.75-4.52-2.879-4.52-2.879l-.155-9.758 7.442.624s-.312 7.507 0 9.008c.311 1.5-2.767 3.005-2.767 3.005Z" fill="#2EA478"/><path d="M24.11 207.837c-1.3-.645-2.51-.378-4.132.503-1.622.881-4.57-.251-4.57-.251s-.587.503-.884 2.255c-.296 1.752-.441 2.754-.145 3.379.296.624 14.814 0 16.285 0s1.034-1.254-1.326-2.13c-2.36-.876-3.44-2.885-5.227-3.756ZM11.456 92.857s-1.451 22.979-.407 41.915c1.045 18.936 2.803 69.163 2.803 69.163h10.912s6.663-49.472 9.144-61.838c2.48-12.365 6.026-47.629 6.026-47.629l-28.478-1.611Z" fill="#1A5841"/><path d="M34.084 177.638a501.328 501.328 0 0 0 13.367-1.782l.844-.131c1.14-14.329 2.29-30.209 2.365-37.132.15-14.057-2.626-26.181-1.235-28.069 1.39-1.888-2.747-15.865-2.747-15.865l-11.46 2.155-8.747 21.771s4.52 26.684 5.182 32.328c.312 2.684 1.386 14.747 2.43 26.725Z" fill="#FFD1CD" style="mix-blend-mode:multiply"/><path d="M28.4 178.298c1.973-14.204 4.263-29.998 5.523-36.201 2.48-12.36 6.026-47.629 6.026-47.629l-28.493-1.611s-1.451 22.979-.407 41.915c.553 9.999 1.316 29.202 1.914 45.066a723.044 723.044 0 0 0 15.436-1.54Z" fill="#FFD1CD" style="mix-blend-mode:multiply"/><path d="M55.556 171.123s-5.714 2.1-14.924 2.452c-1.456.055-3.013.07-4.63.03-14.151-.398-23.14 1.274-27.7.504a9.995 9.995 0 0 1-.572-.121s.573-61.425 1.22-69.385c.181-2.225-.703-18.558.432-32.897.713-8.822-2.837-23.443.417-29.988 1.532-3.086 12.419-8.403 12.419-8.403s6.91 6.51 13.332 6.858c5.986.332 4.685-6.042 4.685-6.042l6.096 5.93a143.304 143.304 0 0 1 2.386 18.066c.29 4.596 1.235 13.66 1.14 22.984.602 7.582.527 20.698 2.325 37.217 2.787 25.476 3.374 52.795 3.374 52.795Z" fill="#2EA478"/><path d="M22.218 33.3a28.768 28.768 0 0 0 7.632 5.639c3.983 1.953 7.066 1.601 7.066 1.601l-.834-3.383s-2.777-.292-6.528-2.316a31.748 31.748 0 0 1-5.915-4.028L22.218 33.3Z" fill="url(#a)"/><path d="m36.916 40.545.502-3.655s1.642-2.286 1.723-3.927l2.008 1.435s.713 1.757-1.843 4.566a4.87 4.87 0 0 1-2.39 1.581Z" fill="url(#b)"/><path d="m36.916 40.54 1.672 17.748-2.25.574" stroke="#31C48D" stroke-miterlimit="10"/><path d="M35.75 44.613a.756.756 0 0 1-.854.792.753.753 0 0 1-.61-.994.755.755 0 0 1 1.392-.084.75.75 0 0 1 .073.286Zm.558 9.35a.767.767 0 0 1-.713.805.757.757 0 0 1-.795-.863.76.76 0 0 1 .999-.614.758.758 0 0 1 .51.672Z" fill="#31C48D"/><path d="M8.303 174.093a15.72 15.72 0 0 0 2.008.192 3.78 3.78 0 0 0-2.008-.192Zm31.717-5.9c-.47-27.249-.94-54.49-1.412-81.725-.402 22.611-.783 52.548-3.3 75.018a238.565 238.565 0 0 1-1.706 12.084c.783 0 1.581.025 2.4.05a73.55 73.55 0 0 0 4.63-.03c-.538-1.717-.583-3.59-.613-5.397Z" fill="#2BA070"/><path d="M39.959 23.457c.025.448-.502 2.28-2.13 1.863-.933-.232-1.355-1.48-1.415-1.939.517.78 3.163 1.093 3.545.076Z" fill="#4C2C2D"/><path d="M38.98 17.838c.853 2.08 1.31 3.242 1.346 3.826.035.584-1.728.69-1.728.69" stroke="#FDA086" stroke-width=".57" stroke-linecap="round" stroke-linejoin="round"/><path d="M34.731 17.314c.03.504.342.871.698.851.357-.02.623-.438.593-.931-.03-.494-.362-.856-.698-.856-.337 0-.623.443-.593.936Z" fill="#4C2C2D"/><path d="M42.882 21.01a3.036 3.036 0 0 1-1.743.272s1.05 1.218 1.742-.272Zm-6.8.644c-.591.103-1.2.026-1.747-.221 0 0 .678 1.46 1.747.221Z" fill="#FF9876"/><path d="M42.69 13.493c-.762-.388-1.938-.549-2.55-.227 0 0 .366.58.542.605a6.567 6.567 0 0 1 1.753.16c.416.16.803.388 1.145.675a1.613 1.613 0 0 0-.89-1.213Zm-8.872-.458a7.364 7.364 0 0 1 3.148 0s-.467.574-.678.594a22.354 22.354 0 0 0-2.51.05c-.516.1-.998.325-1.407.655a2.16 2.16 0 0 1 1.447-1.3Zm7.668 4.465c.03.504.346.872.703.852.356-.02.617-.439.592-.932-.025-.493-.346-.87-.703-.85-.356.02-.618.437-.592.93Z" fill="#4C2C2D"/><path d="M44.468 53.465c.568.69 10.37 11.076 1.577 10.034-3.32-.393-4.118-4.144-3.801-6.319.331-2.286 1.451-4.662 2.224-3.715Zm-11.539 5.709c.286 1.077 1.13 4.637 1.848 4.738.572.085.311-5.378-.196-7.825-.588-2.799-1.698-3.645-2.09-3.307-.933.785-.135 4.184.438 6.394Z" fill="#2BA070"/><path d="M40.793 37.288a.89.89 0 0 1 .175.055c.08-.566.264-1.112.543-1.611l.06-.106c.648-1.238 1.215-.654 1.215-.654.004-.406.08-.809.221-1.189.286-.981 1.004-1.344 1.28-1.127.443.342.227 1.696.227 1.696.2-.503.637-.654.959-.322.321.332.246 2.633.15 4.028a.727.727 0 0 1 .568.373c.371.503.276 2.396.15 4.027-.105 1.425.87 3.756.608 4.703-.312.944-.73 1.849-1.245 2.698-.211.393 1.617 3.172 1.878 3.6 2.245 3.132.658 9.44 0 9.305-.14-.393-6.654-8.388-7.03-9.234-.744-1.677-1.572-2.719-1.828-3.827a34.706 34.706 0 0 1-.13-7.446c.22-1.31.757-3.081 1.059-4.285a.861.861 0 0 1 1.14-.684Z" fill="#E3937F"/><path d="M18.667 61.691c.236 3.283.387 6.57.568 9.823 0 .212 0 .418.03.625a49.624 49.624 0 0 0 5.524-3.213c2.887-2.014 4.856-4.46 7.838-7.602 1.035-1.007 5.71-7.452 6.398-8.101 1.37-1.28 2.606-1.611 3.284-2.553.678-.941 1.823-5.568 2.25-7.275.321-1.314.527-3.207.728-4.461a.883.883 0 0 0-.773-1.093 1.2 1.2 0 0 0-.186 0 4.728 4.728 0 0 0 .135-1.737v-.126c-.06-.745-.29-1.006-.502-1.097a.53.53 0 0 0-.321 0h-.05a1.12 1.12 0 0 0 .105-.292c.025-.131.05-.267.08-.403v-.03l.036-.227.04-.256c.13-1.043-.402-1.672-.748-1.586-.223.1-.402.28-.503.503a4.51 4.51 0 0 0-.381.972.822.822 0 0 0-.13-.529.502.502 0 0 0-.634-.161c-.341.146-1.17 2.074-1.647 3.449-.356 1.007-.823 1.747-.964 2.18h-.04a1.141 1.141 0 0 0-.251-.06.842.842 0 0 0-.593.105c-.562.343-.627.504-1.155 2.07-.502 1.38-1.878 3.02-2.008 4.027-.09 1.007-.066 2.02.07 3.021a7.106 7.106 0 0 1-1.652 4.491 114.397 114.397 0 0 1-10.771 7.22c-.924.56-2.652 1.31-3.777 2.316Z" fill="#FEC1B2"/><path d="M42.917 43.979a6.455 6.455 0 0 0 .778-2.341c.226-1.33.668-3.021.794-3.776a1.153 1.153 0 0 0-.186 0 4.77 4.77 0 0 0 .14-1.738V36c-.226.805-.683 3.75-.939 5.17-.256 1.304-.552 2.649-.587 2.81Zm-1.357-.75s.704-1.969.85-2.462c.22-.73 1.376-5.443 1.506-5.886a.531.531 0 0 0-.321 0c-.271 1.314-2.034 8.348-2.034 8.348Zm-1.686-.539c.115-.413 1.235-4.23 1.687-5.8.472-1.662.608-3.278 1.004-4.275a4.51 4.51 0 0 0-.381.972.822.822 0 0 0-.131-.529c-.11.64-.869 3.877-1.034 4.592-.638 2.658-1.045 4.506-1.145 5.04Zm-3.164 1.566c.212-.455.4-.92.562-1.395.196-.614.779-2.014 1.115-3.071.08-.257.211-.725.367-1.279a1.137 1.137 0 0 0-.251-.06 20.453 20.453 0 0 1-1.346 3.821c-.28.625-.431 1.3-.447 1.984Z" fill="#E3937F"/><path d="M9.8 41.703c3.338 0 8.089 5.423 7.285 12.305-.502 4.436-3.264 12.92-4.71 17.375-1.767 5.473-4.072 6.672-4.072 6.672S-.992 82.228.087 71.508C.5 67.436 2.678 57.94 4.491 53.313 8.921 42.056 9.8 41.703 9.8 41.703Z" fill="#31C48D"/><path d="M1.212 77.465c2.596 3.414 13.322.902 19.5-2.598 9.445-5.347 14.105-10.855 14.286-11.046-.854-.715-2.2-6.339-2.511-7.522a7.233 7.233 0 0 1 0-3.524s-19.5 9.878-19.76 10.004c0 0-6.965 2.165-7.417 3.615-1.125 3.585-5.383 9.395-4.098 11.071Zm52.918-4.053a25.994 25.994 0 0 0 1.652-3.892c1.236-3.796 1.477-8.14-.08-11.872-4.058-2.26-8.035-4.48-8.934-5.538 0 0 1.964 2.517 1.196 5.458-1.668 6.323-4.987 3.78-4.987 3.78.567.953 1.356 2.745 6.377 7.402 1.24 1.153 2.978 2.945 4.776 4.662Z" fill="#31C48D"/><path d="M39.874 37.524a.414.414 0 0 1 .125.06.459.459 0 0 1-.125-.06Z" fill="#E3937F"/><path d="M15.443 61.394S6.841 63.46 4.04 69.344m42.728-17.219s7.03 6.082 9.2 7.668c2.17 1.586 3.796 6.646 3.796 6.646" stroke="#2EA478" stroke-miterlimit="10"/><defs><linearGradient id="a" x1="22.126" y1="35.3" x2="37.143" y2="36.024" gradientUnits="userSpaceOnUse"><stop stop-color="#EEE"/><stop offset="1" stop-color="#D5D5D5"/></linearGradient><linearGradient id="b" x1="37.111" y1="36.692" x2="41.144" y2="36.886" gradientUnits="userSpaceOnUse"><stop stop-color="#EEE"/><stop offset="1" stop-color="#D5D5D5"/></linearGradient></defs></svg>